<?xml version="1.0" encoding="utf-8"?>
<!-- Generator: Adobe Illustrator 23.0.3, SVG Export Plug-In . SVG Version: 6.00 Build 0)  -->
<svg version="1.1" id="Layer_1" xmlns="http://www.w3.org/2000/svg" xmlns:xlink="http://www.w3.org/1999/xlink" x="0px" y="0px"
	 viewBox="0 0 20.9 20.7" style="enable-background:new 0 0 20.9 20.7;" xml:space="preserve">
<style type="text/css">
	.st0{fill:#676767;}
</style>
<g>
	<g>
		<path class="st0" d="M8,3.9C7.9,4.3,7.8,4.7,7.8,5.1c0,0.1,0,0.2,0.1,0.3c2.6,2.5,5.1,5,7.7,7.6c0.1,0.1,0.2,0.1,0.3,0.1
			c2.5-0.7,5.1,1.1,5.1,3.7c0,0.2,0,0.4-0.2,0.5s-0.4-0.1-0.5-0.2c-0.4-0.4-0.8-0.8-1.2-1.2c-0.8-0.7-1.6-0.6-2.4,0
			c-0.2,0.2-0.4,0.4-0.6,0.6c-0.5,0.7-0.5,1.5,0,2.2c0.3,0.4,0.7,0.7,1.1,1.1c0.1,0.1,0.2,0.2,0.3,0.3c0.1,0.1,0.2,0.3,0.1,0.4
			c0,0.1-0.2,0.2-0.4,0.2c-0.9,0-1.6-0.2-2.4-0.7c-1.5-1-2-2.7-1.6-4.4c0-0.1,0-0.2-0.1-0.3c-2.5-2.5-5.1-5.1-7.7-7.6
			c-0.1,0-0.2,0-0.3,0C2.7,8.4,0.4,6.9,0,4.4C0,4.2,0,4,0,3.7s0.3-0.4,0.5-0.3c0.1,0,0.2,0.1,0.2,0.2C1.2,4.1,1.6,4.5,2,4.8
			c0.8,0.7,1.6,0.7,2.4,0c0.2-0.2,0.4-0.3,0.5-0.5c0.6-0.7,0.6-1.6,0-2.3C4.5,1.6,4.1,1.2,3.7,0.8C3.5,0.6,3.4,0.5,3.5,0.2
			C3.6,0,3.8,0,4,0C6.2,0,7.9,1.8,8,3.9z"/>
		<path class="st0" d="M7.2,11.2C8.1,12.1,9,13,10,13.9c-0.3,0.4-0.5,0.9-0.6,1.4c0,0.1-0.1,0.2-0.2,0.3C7.8,17,6.4,18.4,5,19.7
			c-0.3,0.2-0.5,0.5-0.9,0.7c-0.6,0.4-1.3,0.4-1.9,0S1,19.5,0.6,18.9c-0.5-0.7-0.4-1.4,0-2.1C1,16.5,1.2,16.2,1.4,16
			c1.3-1.3,2.7-2.6,4-4c0.2-0.2,0.3-0.2,0.5-0.3C6.4,11.7,6.9,11.5,7.2,11.2z M1.3,17.7c0,0.2,0.1,0.4,0.3,0.5s0.4,0.1,0.5-0.1
			c0.2-0.1,0.3-0.3,0.4-0.4C4,16.3,5.4,15,6.7,13.6c0.2-0.2,0.3-0.5,0-0.8c-0.2-0.2-0.5-0.2-0.7,0c-1.5,1.5-3,3-4.5,4.5
			C1.4,17.4,1.4,17.6,1.3,17.7z M8.5,14.8c0-0.3-0.1-0.5-0.3-0.5c-0.2-0.1-0.4,0-0.6,0.1c-1.5,1.5-3,3-4.5,4.5
			c-0.2,0.2-0.2,0.5,0,0.7s0.5,0.2,0.7,0c1.5-1.5,3-3,4.5-4.5C8.4,15,8.4,14.9,8.5,14.8z"/>
		<path class="st0" d="M13.3,9.1c-0.4-0.4-0.8-0.8-1.2-1.2c0.1-0.1,0.1-0.1,0.2-0.2c1.2-1.2,2.4-2.4,3.6-3.6
			c0.2-0.2,0.3-0.4,0.4-0.6c0.2-0.4,0.4-0.8,0.6-1.2c0.1,0,0.2-0.2,0.4-0.3c0.6-0.4,1.3-0.7,1.9-1.1c0.2-0.1,0.3-0.1,0.4,0
			c0.3,0.3,0.5,0.5,0.8,0.8c0.1,0.1,0.1,0.2,0.1,0.4c-0.4,0.6-0.7,1.3-1.1,1.9c-0.1,0.2-0.3,0.3-0.5,0.4C18.4,4.6,18,4.8,17.7,5
			c-0.2,0.1-0.5,0.3-0.7,0.5c-1.2,1.2-2.4,2.3-3.5,3.5C13.4,9,13.3,9,13.3,9.1z"/>
	</g>
</g>
</svg>
