<?xml version="1.0" encoding="utf-8"?>
<!-- Generator: Adobe Illustrator 23.0.3, SVG Export Plug-In . SVG Version: 6.00 Build 0)  -->
<svg version="1.1" id="Layer_1" xmlns="http://www.w3.org/2000/svg" xmlns:xlink="http://www.w3.org/1999/xlink" x="0px" y="0px"
	 viewBox="0 0 24.5 24.2" style="enable-background:new 0 0 24.5 24.2;" xml:space="preserve">
<style type="text/css">
	.st0{fill:#676767;}
</style>
<g>
	<g>
		<g>
			<path class="st0" d="M22.4,10H22l-4.2,5.5c-0.2-0.1-0.4-0.2-0.7-0.2h-5.3c0-1.8-0.9-3.4-2.2-4.4c-0.9,1-2.2,1.6-3.6,1.6
				s-2.7-0.6-3.6-1.6c-1.4,1-2.2,2.6-2.2,4.4v8.8H12v-5.8h5.3c0.8,0,1.5-0.7,1.5-1.6l0,0c0-0.3-0.1-0.6-0.3-0.9L22.4,10z"/>
		</g>
		<ellipse class="st0" cx="5.9" cy="7" rx="4.4" ry="4.5"/>
	</g>
	<path class="st0" d="M23.3,0h-5.5l0,0c-0.8,0-1.5,0-2.3,0l0,0c-2.6,0-5.6,0-8.2,0H7.2C7,0,7,0,6.9,0C6.3,0,5.7,0.6,5.7,1.2v0.7h0.7
		c0-0.2,0-0.4,0-0.5C6.4,1,6.6,0.7,7,0.7h1.4h14.9h0.1c0.4,0,0.5,0.2,0.5,0.5c0,1.4,0,4.1,0,5.5v2.6c0,2,0,3.9,0,5.9
		c0,0.4-0.2,0.7-0.6,0.8c-0.5,0-0.9,0-1.4,0s-0.9,0-1.4,0c-0.4,0-0.7,0-1.1,0v0.7c1.2,0,2.4,0,3.6,0h0.1h0.1c0.7,0,1.2-0.5,1.2-1.2
		c0-4.2,0-9.8,0-14.1C24.5,0.6,24,0,23.3,0z"/>
	<path class="st0" d="M15.5,0.7"/>
</g>
</svg>
