<?xml version="1.0" encoding="utf-8"?>
<!-- Generator: Adobe Illustrator 23.0.3, SVG Export Plug-In . SVG Version: 6.00 Build 0)  -->
<svg version="1.1" id="Layer_1" xmlns="http://www.w3.org/2000/svg" xmlns:xlink="http://www.w3.org/1999/xlink" x="0px" y="0px"
	 viewBox="0 0 21.4 20.5" style="enable-background:new 0 0 21.4 20.5;" xml:space="preserve">
<style type="text/css">
	.st0{fill:#676767;}
</style>
<g>
	<g>
		<g>
			<path class="st0" d="M14.2,11.9c0,2.5,0,4.9,0,7.4c0,0.7-0.5,1.2-1.2,1.2c-4,0-7.9,0-11.9,0C0.5,20.5,0,20,0,19.4
				c0-3.9,0-7.8,0-11.7c0-0.3,0.1-0.6,0.3-0.8c1.1-1.1,2.2-2.3,3.3-3.4c0.2-0.3,0.5-0.4,0.9-0.4c2.8,0,5.5,0,8.3,0
				c0.8,0,1.4,0.6,1.4,1.4C14.3,7,14.3,9.4,14.2,11.9C14.2,11.9,14.2,11.9,14.2,11.9z M13.6,11.9C13.6,11.9,13.6,11.9,13.6,11.9
				c0-1.7,0-3.4,0-5c0-0.8,0-1.7,0-2.5c0-0.4-0.3-0.7-0.7-0.7c-2.8,0-5.6,0-8.4,0c-0.2,0-0.2,0.1-0.2,0.2c0,0.9,0,1.9,0,2.8
				c0,0.5-0.2,0.7-0.7,0.7c-0.9,0-1.8,0-2.7,0c-0.3,0-0.3,0-0.3,0.3c0,0.4,0,0.9,0,1.3c0,3.4,0,6.8,0,10.3c0,0.5,0.1,0.6,0.6,0.6
				c2.7,0,5.4,0,8.1,0c1.3,0,2.6,0,3.8,0c0.3,0,0.5-0.1,0.5-0.5c0,0,0-0.1,0-0.1C13.6,16.8,13.6,14.4,13.6,11.9z"/>
			<path class="st0" d="M8.9,5.5c-1,0-2.1,0-3.1,0c-0.1,0-0.1,0-0.2,0c-0.2,0-0.4-0.1-0.4-0.3c0-0.2,0.1-0.3,0.4-0.3
				c0.2,0,0.5,0,0.7,0c1.9,0,3.9,0,5.8,0c0.3,0,0.5,0.1,0.5,0.3c0,0.2-0.2,0.3-0.5,0.3C11,5.5,9.9,5.5,8.9,5.5z"/>
			<path class="st0" d="M7.9,10.1c-1,0-4.4,0-5.5,0c0,0-0.1,0-0.1,0c-0.3,0-0.4-0.1-0.4-0.3c0-0.2,0.2-0.3,0.4-0.3c0.3,0,0.7,0,1,0
				c1.8,0,6,0,7.9,0c0.3,0,0.4,0.1,0.4,0.3c0,0.2-0.1,0.3-0.4,0.3c-0.7,0-1.5,0-2.2,0C8.7,10.1,8.3,10.1,7.9,10.1z"/>
			<path class="st0" d="M7.9,13.5c-1.1,0-4.5,0-5.6,0c0,0-0.1,0-0.1,0c-0.2,0-0.3-0.1-0.3-0.3c0-0.2,0.1-0.3,0.3-0.3
				c0.1,0,0.1,0,0.2,0c2.1,0,6.6,0,8.8,0c0,0,0.1,0,0.1,0c0.2,0,0.3,0.1,0.3,0.3c0,0.2-0.1,0.3-0.3,0.3c-0.5,0-1,0-1.5,0
				C9.1,13.5,8.5,13.5,7.9,13.5C7.9,13.5,7.9,13.5,7.9,13.5z"/>
			<path class="st0" d="M7.9,16.9c-1.1,0-4.5,0-5.6,0c-0.2,0-0.3,0-0.4-0.2c0-0.1,0-0.2,0-0.3c0.1-0.1,0.2-0.1,0.3-0.1
				c1.6,0,5.5,0,7.1,0c0.6,0,1.2,0,1.7,0c0.3,0,0.5,0.1,0.5,0.3c0,0.2-0.2,0.3-0.5,0.3C10.1,16.9,9,16.9,7.9,16.9z"/>
			<path class="st0" d="M8.7,6.8c-0.7,0-1.5,0-2.2,0c-0.2,0-0.4-0.1-0.4-0.3c0-0.2,0.1-0.3,0.4-0.3c0.9,0,1.8,0,2.7,0
				c0.5,0,1.1,0,1.6,0c0.3,0,0.4,0.1,0.4,0.3c0,0.2-0.2,0.3-0.4,0.3C10.2,6.8,9.4,6.8,8.7,6.8C8.7,6.8,8.7,6.8,8.7,6.8z"/>
		</g>
	</g>
	<path class="st0" d="M21.4,8.3c0-2.3,0-4.7,0-7c0-0.7-0.6-1.3-1.3-1.3c-2.6,0-5.2,0-7.8,0c-0.3,0-0.6,0.1-0.9,0.4
		C10.7,1.1,10,1.9,9.2,2.7c0.9,0,1.9,0,2.8,0c0-0.6,0-1.3,0-1.9c0-0.2,0-0.2,0.2-0.2c2.6,0,5.2,0,7.9,0c0.4,0,0.7,0.2,0.7,0.6
		c0,0.8,0,1.6,0,2.4c0,1.6,0,3.1,0,4.7c0,0,0,0,0,0c0,2.3,0,4.6,0,6.9c0,0,0,0.1,0,0.1c0,0.3-0.1,0.4-0.5,0.4c-1.2,0-2.4,0-3.6,0
		c-0.6,0-1.2,0-1.8,0c0,0.2,0,0.4,0,0.6c1.8,0,3.6,0,5.3,0c0.7,0,1.1-0.5,1.1-1.1C21.3,12.9,21.3,10.6,21.4,8.3
		C21.4,8.3,21.4,8.3,21.4,8.3z"/>
	<g>
		<path class="st0" d="M16.9,8.4c0.3,0,0.6,0,0.9,0c0.6,0,1.1,0,1.7,0c0.2,0,0.3-0.1,0.3-0.2c0-0.1-0.1-0.2-0.3-0.2c-1,0-3,0-4.5,0
			v0.5C15.7,8.4,16.5,8.4,16.9,8.4z"/>
		<path class="st0" d="M16.9,11C16.9,11,16.9,11,16.9,11c0.5,0,0.9,0,1.4,0c0.4,0,0.8,0,1.2,0c0.2,0,0.3-0.1,0.3-0.2
			c0-0.1-0.1-0.2-0.3-0.2c0,0-0.1,0-0.1,0c-1.1,0-2.9,0-4.5,0V11C15.8,11,16.5,11,16.9,11z"/>
		<path class="st0" d="M19.4,13.2c-0.5,0-0.9,0-1.4,0c-0.7,0-2,0-3.1,0v0.5c0.8,0,1.6,0,2,0c0.8,0,1.7,0,2.5,0
			c0.2,0,0.4-0.1,0.4-0.2C19.8,13.3,19.7,13.2,19.4,13.2z"/>
	</g>
	<g>
		<path class="st0" d="M16.9,2.8C16.9,2.8,16.9,2.8,16.9,2.8c0.5,0,0.9,0,1.4,0c0.4,0,0.8,0,1.2,0c0.2,0,0.3-0.1,0.3-0.2
			c0-0.1-0.1-0.2-0.3-0.2c0,0-0.1,0-0.1,0c-1.1,0-2.9,0-4.5,0v0.5C15.8,2.8,16.5,2.8,16.9,2.8z"/>
		<path class="st0" d="M19.4,5.1c-0.5,0-0.9,0-1.4,0c-0.7,0-2,0-3.1,0v0.5c0.8,0,1.6,0,2,0c0.8,0,1.7,0,2.5,0c0.2,0,0.4-0.1,0.4-0.2
			C19.8,5.2,19.7,5.1,19.4,5.1z"/>
	</g>
</g>
</svg>
