<?xml version="1.0" encoding="utf-8"?>
<!-- Generator: Adobe Illustrator 23.0.3, SVG Export Plug-In . SVG Version: 6.00 Build 0)  -->
<svg version="1.1" id="Layer_1" xmlns="http://www.w3.org/2000/svg" xmlns:xlink="http://www.w3.org/1999/xlink" x="0px" y="0px"
	 viewBox="0 0 19.9 20.1" style="enable-background:new 0 0 19.9 20.1;" xml:space="preserve">
<style type="text/css">
	.st0{fill:#FFFFFF;}
</style>
<g>
	<g>
		<path class="st0" d="M15.9,20.1C15.6,20,15.3,20,15,19.9c-1.6-0.6-2.6-2.2-2.4-3.8c0-0.2,0.1-0.3,0.1-0.5c0-0.1,0-0.2-0.1-0.2
			c-2-1-4-2-6-3.1c0,0,0,0-0.1,0c-0.8,1-1.9,1.5-3.2,1.4c-0.9-0.1-1.7-0.4-2.3-1.1C-0.4,11.2-0.4,9,1,7.5c1.3-1.3,3.9-1.7,5.5,0.3
			c2.1-1.1,4.1-2.1,6.2-3.2c0-0.2-0.1-0.4-0.1-0.6c-0.2-1.9,1.2-3.7,3.1-3.9c2.2-0.3,4.1,1.3,4.2,3.6c0,1.8-1.3,3.4-3.1,3.6
			C15.5,7.4,14.3,7,13.5,6c-0.1-0.1-0.2-0.1-0.3-0.1c-1.9,1-3.9,2-5.8,3C7.2,9,7.1,9,7.2,9.2c0.2,0.5,0.2,1.1,0,1.6
			c0,0.1,0,0.2,0.1,0.2c2,1,4,2,6,3.1c0,0,0,0,0.1,0c0.3-0.2,0.5-0.5,0.8-0.7c1.1-0.8,2.3-0.9,3.6-0.4c1.3,0.6,2,1.6,2.2,3
			c0.2,2-1.2,3.7-3.1,3.9h-0.1C16.4,20.1,16.1,20.1,15.9,20.1z"/>
	</g>
</g>
</svg>
