<?xml version="1.0" encoding="utf-8"?>
<!-- Generator: Adobe Illustrator 23.0.3, SVG Export Plug-In . SVG Version: 6.00 Build 0)  -->
<svg version="1.1" id="Layer_1" xmlns="http://www.w3.org/2000/svg" xmlns:xlink="http://www.w3.org/1999/xlink" x="0px" y="0px"
	 viewBox="0 0 21.8 19.7" style="enable-background:new 0 0 21.8 19.7;" xml:space="preserve">
<style type="text/css">
	.st0{fill:#515151;}
</style>
<g>
	<path class="st0" d="M12.7,19.7c0-2,0-3.9,0-5.9c-1.2,0-2.3,0-3.5,0c0,0.1,0,0.2,0,0.3c0,1.8,0,3.6,0,5.4c0,0.2,0,0.2-0.2,0.2
		c-1.6,0-3.2,0-4.9,0c-0.6,0-1-0.4-1-1.1c0-2.4,0-4.7,0-7.1c0-0.2,0-0.3,0.2-0.4c2.5-2.3,5-4.6,7.4-7c0.2-0.2,0.2-0.2,0.4,0
		c2.5,2.3,5,4.6,7.4,7c0.1,0.1,0.2,0.2,0.2,0.4c0,2.4,0,4.8,0,7.1c0,0.7-0.4,1.1-0.9,1.1c-1.7,0-3.3,0-5,0
		C12.8,19.7,12.7,19.7,12.7,19.7z"/>
	<path class="st0" d="M15.3,3.5c0-0.9,0-1.7,0-2.5c0-0.1,0-0.3,0-0.4c0-0.3,0.2-0.5,0.5-0.5c0.8,0,1.7,0,2.5,0
		c0.3,0,0.5,0.2,0.5,0.6c0,2,0,4,0,6c0,0.1,0,0.2,0.1,0.3c0.9,0.8,1.8,1.6,2.6,2.5c0.1,0.1,0.1,0.1,0.2,0.2c0.2,0.2,0.2,0.5,0.1,0.7
		c-0.3,0.4-0.5,0.7-0.8,1.1c-0.2,0.3-0.4,0.3-0.7,0c-1-1-2.1-2-3.1-3c-2-1.9-4-3.8-6-5.7C11,2.7,11,2.7,10.9,2.6
		C10.5,3.1,10,3.5,9.6,3.9c-2.7,2.5-5.3,5-8,7.5c-0.3,0.3-0.5,0.2-0.7-0.1s-0.5-0.6-0.7-0.9C-0.1,10-0.1,9.8,0.3,9.5
		c1.5-1.4,3-2.8,4.4-4.2c1.7-1.6,3.3-3.1,5-4.7c0.5-0.5,1.1-0.7,1.7-0.5c0.2,0.1,0.4,0.2,0.6,0.4c1,1,2,1.9,3.1,2.9
		C15.1,3.4,15.2,3.4,15.3,3.5z"/>
</g>
</svg>
