<?xml version="1.0" encoding="utf-8"?>
<!-- Generator: Adobe Illustrator 23.0.3, SVG Export Plug-In . SVG Version: 6.00 Build 0)  -->
<svg version="1.1" id="Layer_1" xmlns="http://www.w3.org/2000/svg" xmlns:xlink="http://www.w3.org/1999/xlink" x="0px" y="0px"
	 viewBox="0 0 18.5 22.8" style="enable-background:new 0 0 18.5 22.8;" xml:space="preserve">
<style type="text/css">
	.st0{fill:#515151;}
</style>
<g>
	<path class="st0" d="M18.4,11.6c0,3.2,0,6.5,0,9.7c0,0.9-0.6,1.5-1.5,1.5c-5.1,0-10.2,0-15.4,0c-0.8,0-1.5-0.7-1.5-1.5
		C0,16.2,0,11.1,0,6c0-0.4,0.2-0.7,0.4-1c1.4-1.5,2.9-3,4.3-4.5C5.1,0.2,5.5,0,5.9,0c3.6,0,7.2,0,10.7,0c1,0,1.8,0.8,1.8,1.8
		C18.5,5.1,18.5,8.3,18.4,11.6C18.5,11.6,18.4,11.6,18.4,11.6z M17.6,11.6L17.6,11.6c0-2.2,0-4.4,0-6.6c0-1.1,0-2.2,0-3.3
		c0-0.6-0.4-0.9-0.9-0.9c-3.6,0-7.2,0-10.9,0c-0.2,0-0.3,0.1-0.3,0.3c0,1.2,0,2.5,0,3.7c0,0.6-0.3,0.9-0.9,0.9c-1.2,0-2.3,0-3.5,0
		c-0.4,0-0.4,0-0.4,0.4c0,0.6,0,1.2,0,1.7c0,4.5,0,9,0,13.4C0.8,21.9,1,22,1.5,22c3.5,0,7,0,10.5,0c1.7,0,3.3,0,5,0
		c0.4,0,0.6-0.2,0.6-0.6c0-0.1,0-0.1,0-0.2C17.6,18,17.6,14.8,17.6,11.6z"/>
	<path class="st0" d="M4.9,13.3c0,0.4,0,0.7,0,1.1c0,0.3-0.2,0.5-0.5,0.5c-0.7,0-1.4,0-2.2,0c-0.3,0-0.5-0.2-0.5-0.5
		c0-0.7,0-1.4,0-2.2c0-0.3,0.2-0.5,0.5-0.5c0.7,0,1.4,0,2.2,0c0.3,0,0.5,0.2,0.5,0.5C4.9,12.6,4.9,12.9,4.9,13.3z"/>
	<path class="st0" d="M10.3,9.2c-1.4,0-2.7,0-4.1,0c-0.1,0-0.1,0-0.2,0C5.7,9.2,5.5,9,5.5,8.8S5.7,8.4,6,8.4c0.4,0,0.9,0,1.3,0
		c2.4,0,4.8,0,7.1,0c0.3,0,0.5,0.1,0.5,0.4c0,0.3-0.2,0.4-0.5,0.4c-0.9,0-1.9,0-2.8,0C11.2,9.2,10.7,9.2,10.3,9.2z"/>
	<path class="st0" d="M10.3,13.6c-1.4,0-2.8,0-4.2,0c-0.1,0-0.1,0-0.2,0c-0.2,0-0.4-0.2-0.4-0.4s0.2-0.4,0.4-0.4c0.1,0,0.2,0,0.3,0
		c2.8,0,5.5,0,8.3,0h0.1c0.2,0,0.4,0.2,0.4,0.4s-0.2,0.4-0.4,0.4c-0.7,0-1.3,0-2,0C11.9,13.6,11.1,13.6,10.3,13.6L10.3,13.6z"/>
	<path class="st0" d="M10.3,18.2c-1.4,0-2.8,0-4.2,0c-0.2,0-0.4,0-0.5-0.3c0-0.1,0-0.3,0.1-0.4s0.3-0.2,0.4-0.2c2.1,0,4.1,0,6.2,0
		c0.8,0,1.5,0,2.3,0c0.4,0,0.6,0.1,0.6,0.4s-0.2,0.4-0.6,0.4C13,18.2,11.6,18.2,10.3,18.2z"/>
	<path class="st0" d="M4.9,8.9c0,0.3,0,0.7,0,1s-0.2,0.5-0.5,0.5c-0.7,0-1.4,0-2.1,0c-0.3,0-0.5-0.2-0.5-0.5c0-0.7,0-1.4,0-2.1
		c0-0.3,0.2-0.5,0.5-0.5c0.7,0,1.4,0,2.1,0c0.3,0,0.5,0.2,0.5,0.5C4.9,8.2,4.9,8.6,4.9,8.9z M4,9.6c0-0.5,0-1,0-1.4
		c-0.5,0-1,0-1.4,0c0,0.5,0,1,0,1.4C3.1,9.6,3.6,9.6,4,9.6z"/>
	<path class="st0" d="M1.8,17.8c0-0.4,0-0.7,0-1.1c0-0.3,0.2-0.5,0.5-0.5c0.7,0,1.4,0,2.2,0c0.3,0,0.5,0.2,0.5,0.5
		c0,0.7,0,1.4,0,2.1c0,0.3-0.2,0.5-0.5,0.5c-0.7,0-1.4,0-2.1,0c-0.3,0-0.5-0.2-0.5-0.5C1.8,18.5,1.8,18.2,1.8,17.8z M4,18.6
		c0-0.5,0-1,0-1.5c-0.5,0-1,0-1.4,0c0,0.5,0,1,0,1.5C3.1,18.6,3.6,18.6,4,18.6z"/>
</g>
</svg>
