<?xml version="1.0" encoding="utf-8"?>
<!-- Generator: Adobe Illustrator 23.0.3, SVG Export Plug-In . SVG Version: 6.00 Build 0)  -->
<svg version="1.1" id="Layer_1" xmlns="http://www.w3.org/2000/svg" xmlns:xlink="http://www.w3.org/1999/xlink" x="0px" y="0px"
	 viewBox="0 0 22.8 22.1" style="enable-background:new 0 0 22.8 22.1;" xml:space="preserve">
<style type="text/css">
	.st0{fill:#676767;}
</style>
<g>
	<g>
		<path class="st0" d="M21.1,1.8c0-0.1,0-0.1,0-0.2c0,0,0-0.1,0-0.1c0-0.8-0.6-1.4-1.4-1.4C14.7,0,8.1,0,3.2,0
			C2.3,0,1.7,0.6,1.7,1.5c0,2.8,0,18.9,0,19c0,0,0.6,1.6,1.4,1.6c4.9,0,11.5,0,16.4,0c0.9,0,1.5-0.6,1.5-1.5
			C21,18.4,21.1,4.9,21.1,1.8z M19.9,20c0,0.1,0,0.1,0,0.2c0,0.4-0.2,0.6-0.6,0.6c-1.5,0-13.5,0-15.8,0c-0.5,0-0.8-0.3-0.9-0.7
			c0-0.5,0-1,0-1.6c0-0.5,0-1.1,0-1.6c0-2,0-4.1,0-6.1c0,0,0,0,0,0c0-3,0-6,0-9c0-0.1,0-0.1,0-0.2C2.8,1.1,3,1,3.4,1
			c1.5,0,13.7,0,15.8,0C19.6,1,20,1.2,20,1.7C20,2.2,19.9,20,19.9,20z"/>
		<path class="st0" d="M3.5,4.3H0.7C0.3,4.3,0,4,0,3.7l0,0C0,3.3,0.3,3,0.7,3h2.8c0.4,0,0.7,0.3,0.7,0.7v0C4.1,4,3.9,4.3,3.5,4.3z"
			/>
		<path class="st0" d="M3.5,10.1H0.7C0.3,10.1,0,9.8,0,9.5l0,0c0-0.4,0.3-0.7,0.7-0.7h2.8c0.4,0,0.7,0.3,0.7,0.7v0
			C4.1,9.8,3.9,10.1,3.5,10.1z"/>
		<path class="st0" d="M3.5,7.2H0.7C0.3,7.2,0,6.9,0,6.6l0,0c0-0.4,0.3-0.7,0.7-0.7h2.8c0.4,0,0.7,0.3,0.7,0.7v0
			C4.1,6.9,3.9,7.2,3.5,7.2z"/>
		<path class="st0" d="M3.5,15.9H0.7c-0.4,0-0.7-0.3-0.7-0.7l0,0c0-0.4,0.3-0.7,0.7-0.7h2.8c0.4,0,0.7,0.3,0.7,0.7v0
			C4.1,15.7,3.9,15.9,3.5,15.9z"/>
		<path class="st0" d="M3.5,13H0.7C0.3,13,0,12.7,0,12.4l0,0c0-0.4,0.3-0.7,0.7-0.7h2.8c0.4,0,0.7,0.3,0.7,0.7v0
			C4.1,12.7,3.9,13,3.5,13z"/>
		<path class="st0" d="M3.5,18.8H0.7c-0.4,0-0.7-0.3-0.7-0.7l0,0c0-0.4,0.3-0.7,0.7-0.7h2.8c0.4,0,0.7,0.3,0.7,0.7v0
			C4.1,18.6,3.9,18.8,3.5,18.8z"/>
		<rect x="20.7" y="2" class="st0" width="2.1" height="1.5"/>
		<rect x="20.7" y="4.3" class="st0" width="2.1" height="1.5"/>
		<rect x="20.7" y="6.7" class="st0" width="2.1" height="1.5"/>
	</g>
	<g>
		<path class="st0" d="M11.7,12.6H9.6l-0.3,1.1H7.4L9.7,7h2l2.2,6.8H12L11.7,12.6z M11.3,11.2l-0.7-2.4L10,11.2H11.3z"/>
		<path class="st0" d="M13.7,10h1V9h0.8v1h1v0.9h-1v1h-0.8v-1h-1V10z"/>
	</g>
</g>
</svg>
