<?xml version="1.0" encoding="utf-8"?>
<!-- Generator: Adobe Illustrator 23.0.3, SVG Export Plug-In . SVG Version: 6.00 Build 0)  -->
<svg version="1.1" id="Layer_1" xmlns="http://www.w3.org/2000/svg" xmlns:xlink="http://www.w3.org/1999/xlink" x="0px" y="0px"
	 viewBox="0 0 415 401.4" style="enable-background:new 0 0 415 401.4;" xml:space="preserve">
<style type="text/css">
	.st0{fill:#339898;}
</style>
<g>
	<g>
		<path class="st0" d="M383.7,31.9c0-1-0.1-2.1-0.2-3.1c0-0.9,0-1.7,0-2.6c0-14.8-11.7-26.2-26.4-26.2c-89.9,0-209,0-298.8,0
			c-16,0-27.2,11.2-27.2,27.2c0,51.8-0.9,344.4-0.8,345.4c0,0.9,11.7,28.8,26.4,28.8c89.9,0,209,0,298.8,0c16,0,27.2-11.2,27.2-27.2
			C382.7,334.1,383.7,89.1,383.7,31.9z M362.9,363.9c0,1,0,2.1,0,3.1c-0.2,7.3-3.3,10.3-10.6,10.3c-28,0-246.2,0-286.6,0
			c-9,0-14.9-4.9-15.5-13.6c0-9.5,0-19.1,0-28.6c0.1-9.6,0.2-19.3,0.3-28.9c0.1-37.3,0-74.6,0-111.9c0.2,0,0.3,0,0.5,0
			c0-54.5,0-108.9,0-163.4c0-1,0-2.1,0-3.1c0.2-7.3,3.3-10.3,10.6-10.3c28,0,248.8,0,286.6,0c9,0,14.9,4.9,15.5,13.6
			C363.7,40.7,362.9,363.9,362.9,363.9z"/>
		<path class="st0" d="M63.6,78.9H11.9C5.3,78.9,0,73.5,0,67l0-0.2c0-6.6,5.3-11.9,11.9-11.9h51.7c6.6,0,11.9,5.3,11.9,11.9V67
			C75.5,73.5,70.2,78.9,63.6,78.9z"/>
		<path class="st0" d="M63.6,184.5H11.9c-6.6,0-11.9-5.3-11.9-11.9l0-0.2c0-6.6,5.3-11.9,11.9-11.9h51.7c6.6,0,11.9,5.3,11.9,11.9
			v0.2C75.5,179.2,70.2,184.5,63.6,184.5z"/>
		<path class="st0" d="M63.6,131.7H11.9c-6.6,0-11.9-5.3-11.9-11.9l0-0.2c0-6.6,5.3-11.9,11.9-11.9h51.7c6.6,0,11.9,5.3,11.9,11.9
			v0.2C75.5,126.4,70.2,131.7,63.6,131.7z"/>
		<path class="st0" d="M63.6,290.1H11.9c-6.6,0-11.9-5.3-11.9-11.9l0-0.2c0-6.6,5.3-11.9,11.9-11.9h51.7c6.6,0,11.9,5.3,11.9,11.9
			v0.2C75.5,284.8,70.2,290.1,63.6,290.1z"/>
		<path class="st0" d="M63.6,237.3H11.9C5.3,237.3,0,232,0,225.4l0-0.2c0-6.6,5.3-11.9,11.9-11.9h51.7c6.6,0,11.9,5.3,11.9,11.9v0.2
			C75.5,232,70.2,237.3,63.6,237.3z"/>
		<path class="st0" d="M63.6,343H11.9C5.3,343,0,337.6,0,331.1l0-0.2c0-6.6,5.3-11.9,11.9-11.9h51.7c6.6,0,11.9,5.3,11.9,11.9v0.2
			C75.5,337.6,70.2,343,63.6,343z"/>
		<rect x="376.2" y="36.4" class="st0" width="38.8" height="27.6"/>
		<rect x="376.2" y="78.5" class="st0" width="38.8" height="27.6"/>
		<rect x="376.2" y="121.6" class="st0" width="38.8" height="27.6"/>
	</g>
	<g>
		<path class="st0" d="M212.1,230h-37.8l-5.3,20.3h-34l40.5-122.9h36.3l40.5,122.9h-34.9L212.1,230z M205.2,203.4l-11.9-44.2
			l-11.8,44.2H205.2z"/>
		<path class="st0" d="M249.4,182.6h18.3V164h15.5v18.7h18.4v15.7h-18.4v18.6h-15.5v-18.6h-18.3V182.6z"/>
	</g>
</g>
</svg>
