<?xml version="1.0" encoding="utf-8"?>
<!-- Generator: Adobe Illustrator 23.0.3, SVG Export Plug-In . SVG Version: 6.00 Build 0)  -->
<svg version="1.1" id="Layer_1" xmlns="http://www.w3.org/2000/svg" xmlns:xlink="http://www.w3.org/1999/xlink" x="0px" y="0px"
	 viewBox="0 0 25.3 24.3" style="enable-background:new 0 0 25.3 24.3;" xml:space="preserve">
<style type="text/css">
	.st0{fill:#FFFFFF;}
</style>
<g>
	<g>
		<g>
			<ellipse class="st0" cx="19.2" cy="4.5" rx="2.6" ry="2.7"/>
			<path class="st0" d="M22.6,10.7V9.2c0-1-0.5-1.9-1.3-2.5c-0.5,0.6-1.3,0.9-2.1,0.9c-0.8,0-1.5-0.3-2.1-0.9
				c-0.8,0.6-1.3,1.5-1.3,2.5v1.5H22.6z"/>
		</g>
		<g>
			<ellipse class="st0" cx="6" cy="4.5" rx="2.6" ry="2.7"/>
			<path class="st0" d="M9.3,10.7V9.2c0-1-0.5-1.9-1.3-2.5C7.5,7.2,6.8,7.6,6,7.6S4.5,7.3,3.9,6.7C3.2,7.2,2.7,8.1,2.7,9.2v1.5H9.3z
				"/>
		</g>
	</g>
	<g>
		<g>
			<ellipse class="st0" cx="19.2" cy="17.4" rx="2.6" ry="2.7"/>
			<path class="st0" d="M22.6,23.6v-1.5c0-1-0.5-1.9-1.3-2.5c-0.5,0.6-1.3,0.9-2.1,0.9c-0.8,0-1.5-0.3-2.1-0.9
				c-0.8,0.6-1.3,1.5-1.3,2.5v1.5H22.6z"/>
		</g>
		<g>
			<ellipse class="st0" cx="6" cy="17.4" rx="2.6" ry="2.7"/>
			<path class="st0" d="M9.3,23.6v-1.5c0-1-0.5-1.9-1.3-2.5c-0.5,0.6-1.3,0.9-2.1,0.9s-1.5-0.3-2.1-0.9c-0.8,0.6-1.3,1.5-1.3,2.5
				v1.5H9.3z"/>
		</g>
	</g>
	<g>
		<path class="st0" d="M12.6,24.3c-0.2,0-0.4-0.2-0.4-0.4V0.4c0-0.2,0.2-0.4,0.4-0.4S13,0.2,13,0.4v23.4
			C13.1,24.1,12.9,24.3,12.6,24.3z"/>
		<path class="st0" d="M24.8,12.6H0.4c-0.2,0-0.4-0.2-0.4-0.4s0.2-0.4,0.4-0.4h24.4c0.2,0,0.4,0.2,0.4,0.4
			C25.3,12.4,25.1,12.6,24.8,12.6z"/>
	</g>
</g>
</svg>
