<?xml version="1.0" encoding="utf-8"?>
<!-- Generator: Adobe Illustrator 23.0.3, SVG Export Plug-In . SVG Version: 6.00 Build 0)  -->
<svg version="1.1" id="Layer_1" xmlns="http://www.w3.org/2000/svg" xmlns:xlink="http://www.w3.org/1999/xlink" x="0px" y="0px"
	 viewBox="0 0 391.3 385.1" style="enable-background:new 0 0 391.3 385.1;" xml:space="preserve">
<style type="text/css">
	.st0{fill:#FFFFFF;}
</style>
<g>
	<g>
		<g>
			<path class="st0" d="M356.7,158.8l-5.7,0L283.4,246c-3.3-1.6-7-2.6-10.9-2.6l-85.2,0.1c-0.2-28.7-14.2-54-35.6-69.6
				c-14.7,15.4-35.3,24.9-58.1,25c-22.8,0-43.4-9.5-58.1-24.9C14,189.8,0,215.4,0,244.3l0.1,140.8l187.3-0.2l-0.1-91.9l85.2-0.1
				c13.5,0,24.5-11.1,24.5-24.7v0c0-5.2-1.6-10-4.3-14L356.7,158.8z"/>
		</g>
		<ellipse class="st0" cx="93.5" cy="112.1" rx="70.6" ry="71.4"/>
	</g>
	<path class="st0" d="M371.3,0.7H283c0-0.2-0.1-0.5-0.1-0.7c-12.3,0-24.5,0-36.8,0v0c-42,0-89.4,0-131.3,0c-0.8,0-1.5,0-2.3,0.1
		c-0.6,0-1.3,0-1.9,0c-10.8,0-19.2,8.8-19.2,19.8v11.2h10.5c0-2.8,0-5.7,0-8.2c0-7,3.7-11.6,10.3-12.1l21.8,0l236.7,0.6
		c0.8,0,1.6,0,2.3,0c5.6,0.2,7.9,2.5,7.9,8.3c0,21.8,0,65.5,0,87.3v41.3c0,31.5,0,62.9,0,94.4c0,7-3.7,11.6-10.3,12.1
		c-7.3,0-14.5,0-21.8,0c-7.3-0.1-14.7-0.2-22-0.2c-5.6,0-11.2,0-16.8,0v10.9c19.3,0,38.6,0,57.9,0c0.8,0,1.5,0,2.3-0.1
		c0.6,0,1.3,0,1.9,0c10.8,0,19.2-8.8,19.2-19.8c0-67.5,0-156.9,0-224.3C391.3,9.1,383,0.7,371.3,0.7z"/>
	<path class="st0" d="M246.4,10.9"/>
</g>
</svg>
