<?xml version="1.0" encoding="utf-8"?>
<!-- Generator: Adobe Illustrator 23.0.3, SVG Export Plug-In . SVG Version: 6.00 Build 0)  -->
<svg version="1.1" id="Layer_1" xmlns="http://www.w3.org/2000/svg" xmlns:xlink="http://www.w3.org/1999/xlink" x="0px" y="0px"
	 viewBox="0 0 161.8 199.9" style="enable-background:new 0 0 161.8 199.9;" xml:space="preserve">
<style type="text/css">
	.st0{fill:#FFFFFF;}
</style>
<g>
	<path class="st0" d="M161.3,101.3c0,28.3,0,56.7,0,85c0,8-5.6,13.5-13.6,13.5c-44.8,0-89.7,0-134.5,0c-7.3,0-13.1-5.7-13.2-13.1
		C0,142.3,0,97.7,0,53.2c0-3.8,1.3-6.9,3.9-9.6C16.5,30.5,29,17.5,41.5,4.4C44.4,1.5,47.8,0,51.9,0c31.4,0,62.7,0,94.1,0
		c8.8,0,15.9,7.1,15.9,15.9c0,28.5,0,57,0,85.4C161.6,101.3,161.5,101.3,161.3,101.3z M154.3,101.5c0.1,0,0.2,0,0.2,0
		c0-19.2,0-38.5,0-57.7c0-9.7,0.3-19.4,0.1-29.1c-0.1-4.9-3.2-7.6-8.1-7.6c-31.7,0-63.5,0-95.2,0c-1.9,0-2.4,0.6-2.4,2.5
		c0.1,10.8,0,21.5,0,32.3c0,5.2-2.8,8-8,8c-10.2,0-20.3,0-30.5,0C7.3,49.8,7,50,7,53.4C6.9,58.4,7,63.5,7,68.6
		c0,39.2,0.1,78.5,0.1,117.7c0,5.2,1.3,6.5,6.4,6.5c30.6,0,61.2,0,91.8,0c14.5,0,28.9,0,43.4,0c3.8,0,5.4-1.5,5.5-5.3
		c0-0.5,0-1.1,0-1.6C154.3,157.8,154.3,129.6,154.3,101.5z"/>
	<path class="st0" d="M42.6,116.3c0,3.1,0,6.2,0,9.3c0,2.8-1.4,4.2-4.2,4.2c-6.3,0-12.6,0-18.9,0c-2.7,0-4-1.4-4-4.1
		c0-6.3,0-12.6,0-18.9c0-2.7,1.4-4.1,4-4.1c6.3,0,12.6,0,18.9,0c2.8,0,4.1,1.4,4.2,4.2C42.6,110.1,42.6,113.2,42.6,116.3z"/>
	<path class="st0" d="M100.8,28c-11.7,0-23.3,0-35,0c-0.8,0-1.7,0-2.5,0c-2.5-0.1-4.2-1.6-4.1-3.6c0.1-2.1,1.7-3.5,4.2-3.5
		c2.7,0,5.5,0,8.2,0c21.9,0,43.8,0,65.7,0c3.5,0,5.3,1.2,5.4,3.5c0,2.4-1.8,3.6-5.5,3.6C125,28,112.9,28,100.8,28z"/>
	<path class="st0" d="M89.9,80.8c-11.9,0-23.8,0-35.7,0c-0.5,0-0.9,0-1.4,0c-2.9,0-4.6-1.4-4.6-3.6c0-2.1,1.7-3.5,4.5-3.5
		c3.9,0,7.9,0,11.8,0c20.8,0,41.7,0,62.5,0c2.9,0,4.6,1.3,4.7,3.5c0,2.2-1.7,3.6-4.6,3.6c-8.3,0-16.5,0-24.8,0
		C98.2,80.8,94,80.8,89.9,80.8z"/>
	<path class="st0" d="M90,118.9c-12.2,0-24.4,0-36.6,0c-0.5,0-1.1,0-1.6,0c-2.1-0.2-3.5-1.6-3.5-3.5c0-1.9,1.5-3.4,3.7-3.6
		c0.8-0.1,1.5,0,2.3,0c24.2,0,48.5,0,72.7,0c0.4,0,0.8,0,1.1,0c2.1,0.2,3.7,1.7,3.7,3.6c0,1.9-1.6,3.4-3.8,3.5
		c-5.8,0.1-11.5,0-17.3,0C103.8,119,96.9,119,90,118.9C90,118.9,90,118.9,90,118.9z"/>
	<path class="st0" d="M89.8,159c-12.3,0-24.7,0-37,0c-1.8,0-3.5-0.4-4-2.2c-0.3-1.1-0.1-2.7,0.5-3.5c0.8-0.8,2.4-1.3,3.6-1.3
		c18-0.1,35.9-0.1,53.9-0.1c6.6,0,13.2,0,19.8,0c3.5,0,5.3,1.2,5.3,3.6c0,2.3-1.8,3.5-5.4,3.5C114.2,159,102,159,89.8,159z"/>
	<path class="st0" d="M42.6,78.2c0,3,0,6.1,0,9.1c0,3-1.3,4.4-4.2,4.4c-6.2,0-12.4,0-18.6,0c-2.8,0-4.2-1.4-4.2-4.2
		c0-6.2,0-12.4,0-18.6c0-2.9,1.4-4.3,4.4-4.3c6.1,0,12.3,0,18.4,0c2.9,0,4.3,1.4,4.3,4.3C42.6,72,42.6,75.1,42.6,78.2z M35.4,84.5
		c0-4.4,0-8.5,0-12.6c-4.3,0-8.5,0-12.7,0c0,4.3,0,8.4,0,12.6C27,84.5,31.1,84.5,35.4,84.5z"/>
	<path class="st0" d="M15.5,156.2c0-3.1,0-6.2,0-9.3c0-2.7,1.4-4.1,4.1-4.1c6.3,0,12.6,0,18.9,0c2.8,0,4.1,1.4,4.1,4.2
		c0,6.2,0,12.4,0,18.6c0,2.8-1.4,4.2-4.2,4.2c-6.2,0-12.4,0-18.6,0c-2.9,0-4.2-1.4-4.3-4.4C15.5,162.4,15.5,159.3,15.5,156.2z
		 M35.4,162.7c0-4.4,0-8.5,0-12.7c-4.3,0-8.4,0-12.6,0c0,4.3,0,8.5,0,12.7C27.1,162.7,31.1,162.7,35.4,162.7z"/>
	<path class="st0" d="M99.1,42.6c-8.3,0-16.5,0-24.8,0c-2.5,0-4-1.3-4.2-3.2c-0.2-2.2,1.6-3.8,4.3-3.8c10.1,0,20.3,0,30.4,0
		c6.2,0,12.4,0,18.6,0c2.9,0,4.6,1.4,4.6,3.6c0,2.2-1.8,3.5-4.7,3.5C115.3,42.6,107.2,42.6,99.1,42.6C99.1,42.6,99.1,42.6,99.1,42.6
		z"/>
</g>
</svg>
