<?xml version="1.0" encoding="utf-8"?>
<!-- Generator: Adobe Illustrator 23.0.3, SVG Export Plug-In . SVG Version: 6.00 Build 0)  -->
<svg version="1.1" id="Layer_1" xmlns="http://www.w3.org/2000/svg" xmlns:xlink="http://www.w3.org/1999/xlink" x="0px" y="0px"
	 viewBox="0 0 228.4 29" style="enable-background:new 0 0 228.4 29;" xml:space="preserve">
<style type="text/css">
	.st0{fill:#DE7926;}
	.st1{fill:#C1D82F;}
	.st2{fill:#FFFFFF;}
	.st3{opacity:0.35;fill:#FFFFFF;enable-background:new    ;}
	.st4{fill:none;stroke:#FFFFFF;stroke-width:0.75;stroke-miterlimit:10;}
</style>
<g>
	<path class="st0" d="M41.2,3.5c-0.2,0.2-1,0.2-1.3,0.2s-1.5,0-2,0c-0.5,0-0.5,0-0.5,0.3l0,0c0,0.3,0,0.7,0.2,0.8
		c-0.2,0-0.3-0.2-0.3-0.2c-0.3-0.2-0.7-0.3-1.2-0.5c-0.2-0.3-0.2-0.5-0.3-0.7c0.3,0,1.2-0.2,2.5-0.3c0.2,0,0.7,0,1.2-0.3
		c0.5-0.3,0-0.7-0.2-0.2C39,3,38.3,3,38,3s-1.7,0.2-2.2,0.3c-0.3,0-0.5,0-0.5,0.2l0,0l0,0v0.2c0.2,0.2,0.2,0.3,0.3,0.5
		C35,4,34.3,4,34,4.3c0,0,0,0-0.2,0.2l0,0v0.2c0,0.2-0.2,0.5-0.3,0.5c-1.3-3.5-1.7-4.2-1.8-4.3l0,0l0,0l0,0c-0.2,0.2-0.5,0.8-1,2.3
		c-0.3,0-0.7,0-0.8,0c-0.7-2.2-0.8-3-1-3.2l0,0l0,0c-0.2,0-0.7,0.5-1.3,2.3c-1.8-2-4.3-1.5-5.3-1.2C21,1.7,20.5,2,20.7,2.5
		C21,3.2,21.2,3.7,21.5,4c-0.8,1.2-2.2,2.8-2.5,3.2c-0.3,0.3-0.5,0.7-0.5,1c-0.5,0.5-1.2,1.3-1.3,1.5c-0.7,0.5-1.5,0.3-1.3,0.7
		c0.2,0.5,1.2,0.2,3-1.8c0.3-0.2,1-0.5,1.2-1c0.2-0.3,1.3-1.8,2.2-2.8c0.8,0.5,2,0.8,4.2,0.7c0.7,0.7,1,0.8,1.3,1h0.2
		c0.2,0,0.3,0,0.5,0l0.2,0.2C28.2,6.7,28,6.8,28,7c-2.2-1.3-2.5-1.3-2.7-1.2c0,0-1.2,3.3-0.8,4.3v0.2c-0.2,1.5-0.2,1.7-0.7,2.2
		c-0.5,0.5-1.2,1.7-0.5,1.5c0.7-0.2,1-1.2,1.2-2c0-0.3,0.2-0.8,0.3-1.3c0.3,0,0.7-1,1-4c0.7,0.5,1.5,1.2,2.3,1l0,0
		c0.3,0.2,0.7,0,0.8-0.3c0-0.2,0.3,0,0.7,0C29.3,7.5,29,7.8,29,8l0,0c0.5,1.5,1.2,2.2,1.7,2.5c-0.8,0.8-1.3,1.5-1.2,1.8
		c0.5,2.2,1.2,2.8,1.7,2.8s0.3-0.3-0.2-0.7c-0.3-0.3-1-1.8-1.2-2.3c0.5-0.3,1.2-1.2,1.5-1.5c0.2,0,0.3-0.2,0.2-0.3
		c0-0.3-1.5-1.7-2.2-2.2c0.2,0,0.5,0,0.7-0.2c0.3,0.2,0.7,0,1,0c0.7,0.2,1.2,0,1.5-0.2c0.5,1.2,1.3,2.2,3,2.5c1,0.2,2,0,3-0.2
		c0.2,0,0.2,0,0.3,0c1.7-0.3,1.5-1,0.8-2c0-0.8-0.2-1.7-0.8-2.3c-0.2-0.2-0.5-0.3-0.7-0.5V5.2C38,4.8,38,4.5,38,4.2c0.2,0,1,0,2.7,0
		c0.2,0,0.7,0,1.2-0.2C41.8,3.5,41.5,3.2,41.2,3.5z M28.2,3.7L28.2,3.7L28.2,3.7L28.2,3.7L28.2,3.7L28.2,3.7
		c-0.2-0.3-0.3-0.5-0.5-0.8c0.2-0.5,0.5-1.3,0.7-1.8c0.3,1.2,0.5,1.8,0.7,2.2C28.8,3.3,28.5,3.5,28.2,3.7z M31.2,3.2
		c0.2-0.5,0.3-1,0.5-1.5c0.8,1.8,1.2,2.7,1.3,3.2C32.5,4,32,3.5,31.2,3.2z M39.5,8.5L39.5,8.5L39.5,8.5L39.5,8.5z"/>
	<g>
		<path class="st1" d="M45.5,6.7c0,0-3.2-0.7-4.7,0.3c-0.5,0.3-1,0.8-1.3,1.2c0.5,0.7,0.3,1.2-0.8,1.5c-0.3,0.7-0.5,1.2-0.7,1.5v0.2
			l0,0l0,0c0,0.3-0.2,0.7,0,0.8c0.2,0.5,0.5,0.8,1,1l0.3-0.7c-0.8-0.3-1.2-0.7-0.8-1.5c1.2-0.7,3.8,0,5-0.3
			C45.7,9.8,45.5,6.7,45.5,6.7z"/>
		<path class="st1" d="M39.5,8.5L39.5,8.5L39.5,8.5L39.5,8.5L39.5,8.5z"/>
	</g>
	<path class="st2" d="M16.3,27.8h-3.7c-0.2,0-0.5-0.3-0.5-0.8v-1.5l0,0v-5.2v-5.5c0-0.2,0-0.2,0-0.3h0.2h3.3c0.2,0,0.5,0.3,0.5,0.7
		v11C16.2,26.3,16.2,27.2,16.3,27.8"/>
	<path class="st2" d="M39.3,27.8V20c0-1.8-0.3-3.3-1.2-4.2c-0.7-1-1.8-1.3-3.2-1.3c-0.8,0-1.7,0.2-2.3,0.5c-0.7,0.3-1.2,0.8-1.8,1.5
		c-0.2,0.2-0.3,0.2-0.5,0.2l0,0c-0.3,0-0.5-0.2-0.5-0.3c-0.5-1.2-1.7-1.8-3.3-1.8c-1.5,0-2.8,0.7-3.8,1.8l0,0l0,0
		c-0.2,0.2-0.3,0.3-0.7,0.3c-0.2,0-0.5-0.2-0.5-0.5c0-0.3,0-1,0-1.5v-0.2h-3.3v13.3h4v-7.7l0,0c0-0.3,0-0.8,0.2-1.2
		c0.3-1,1.2-1.5,2.2-1.5c0.7,0,1.3,0.3,1.7,1c0.3,0.5,0.5,1.3,0.5,2.2v7.2h4v-7.7c0-0.5,0-1,0.2-1.2c0.3-1,1.2-1.7,2.2-1.7l0,0
		c0.7,0,1.3,0.3,1.8,1c0.3,0.5,0.5,1.3,0.5,2.3v7.2L39.3,27.8z"/>
	<path class="st2" d="M5.5,10c-1.5,0-2.8,0.5-3.8,1.3s-1.5,2-1.5,3.5c0,0.7,0.2,1.3,0.3,2c0.3,0.7,0.7,1.2,1.2,1.7s1.3,1,2.7,1.7
		c1.2,0.7,2,1.2,2.3,1.7c0.3,0.5,0.5,0.8,0.5,1.3c0,0.7-0.2,1.5-2.2,1.5c-1,0-2.2-0.3-3.2-1.2l-0.3-0.3l-0.2,0.3l-1,2.7L0,26.5
		l0.2,0.2C1.5,27.5,3,28,4.5,28c1.8,0,3.3-0.5,4.5-1.3c1.2-1,1.7-2.2,1.7-3.5c0-0.8-0.2-1.5-0.3-2.2c-0.3-0.7-0.7-1.2-1.2-1.7
		c-0.5-0.8-1.3-1.3-2.5-1.8c-2.5-1.2-3-2.2-3-2.7s0.2-0.8,0.5-1.2s0.7-0.5,1.3-0.5c1,0,2.2,0.3,3,1l0.3,0.3L9,14l1-2.3v-0.2
		l-0.2-0.2C9,10.5,7.5,10,5.5,10"/>
	<path class="st1" d="M59.2,26.2v-11c0-0.5-0.3-0.7-0.5-0.7h-3.3h-0.2c0,0.2,0,0.2,0,0.3v5.5v5.2l0,0V27c0,0.7,0.2,0.8,0.5,0.8h3.7
		C59.2,27.2,59.2,26.3,59.2,26.2z"/>
	<path class="st1" d="M67.7,14.3c-4.3,0-7.2,2.7-7.2,6.8c0,4,2.7,6.7,6.8,6.7c3.2,0,7-1.8,7-6.8C74.3,17,71.7,14.3,67.7,14.3z
		 M67.5,25c-1.7,0-2.5-1.5-2.5-4s1-4,2.5-4c1.5,0,2.5,1.5,2.5,4C70,23.7,69,25,67.5,25z"/>
	<path class="st1" d="M50.5,18.5L50.5,18.5c1.8-0.8,2.8-2.2,2.8-3.7s-0.8-2.7-2-3.3c-1.2-0.7-2.7-1-5-1c-0.3,0-0.7,0-0.8,0
		c-0.3,0.3-0.7,0.7-1.2,0.8c-0.7,0.2-1.7,0.2-2.7,0.2v16l0,0c0.8,0.2,2,0.2,3.8,0.2c3.3,0,5.5-0.5,6.7-1.5c1-0.8,1.8-2,1.8-3.7
		C53.8,20.5,52.5,19,50.5,18.5z M45.2,14.3c0-0.5,0.3-1,1-1c0.2,0,0.5,0,0.7,0c1.7,0,2.7,0.7,2.7,2c0,1.3-1.2,2.2-3.2,2.2H46
		c-0.5,0-1-0.5-1-1v-2.2H45.2z M46.5,25c-0.2,0-0.3,0-0.5,0c-0.5,0-1-0.5-1-1v-2.8c0-0.5,0.5-1,1-1h0.3c1.8,0,3.5,0.7,3.5,2.3
		C49.8,24.3,48.3,25,46.5,25z"/>
	<path class="st3" d="M42.5,10.2c-1.7,0-3.2,0-3.2,0s2.2-3,5.3-2.8C44.7,8.7,44.2,10.2,42.5,10.2z"/>
	<path class="st3" d="M35.2,7.3c-0.5-0.2-1,0-1.2,0.3l0,0c0.5,0.3,1,0.7,1.3,0.8c0.3,0,0.5-0.2,0.5-0.3C36.2,7.8,35.7,7.5,35.2,7.3z
		"/>
	<path class="st3" d="M25,1.3c-1.5-0.5-3.7,0.2-4.3,0.8c0,0-0.2,0,0.8,0.8c0,0,0.2,0,0.3,0.2C21.8,3,22,3,22,3
		c0.3-0.7,0.7-1,0.8-1.2l0,0l0,0l0,0l0,0c0,0,0,0,0.2,0c0.3,0.2,1.5,1,3,2.5c1.2,0,1.8-0.3,1.7-0.7C27.5,3,26.5,1.7,25,1.3z"/>
	<path class="st3" d="M22.5,3.5c0.5,0.2,1.2,0.3,2,0.5c-0.5-0.3-1-0.8-1.7-1.5C22.8,2.8,22.7,3.3,22.5,3.5z"/>
	<path class="st3" d="M30.2,3.3c-1.2,0-2,0.3-1.8,0.7s3.2,1.7,4.2,1.7l0,0c0.2-0.2,0.3-0.3,0.3-0.7C32,3.5,30.5,3.5,30.2,3.3z"/>
	<path class="st3" d="M39.3,8.7C39,8.2,38.5,8,38.7,7.5c0-0.5,0-0.8,0-0.8c0-0.3-0.3-0.7-0.7-1c0.2,0.3,0.2,0.8,0.2,1.2
		c0,0.3-0.3,0-0.7-1.5C37,5,36.5,4.8,36,4.7c0,0,0,0.2,0.2,0.2c0,0.2,1.5,1.8,1.5,2.3c0,0.5-0.7-0.3-1.8-2.7
		c-0.3-0.2-0.5-0.2-0.7-0.2c-0.5,0-1.2,0.2-1,0.5c0,0.3-0.2,0.3-0.5,0.5c-0.3,0.2-0.5,0.5,0.7,0.7c1.2,0.2,2.8,0.7,2.8,1.5
		c0,1-0.8,1.3-0.8,1.3C38.3,9.5,39.8,9.2,39.3,8.7z"/>
	<path class="st3" d="M39.3,10.2c0,0,2.2-3,5.3-2.8c0,1.3-0.7,2.8-2.3,2.8C40.8,10.2,39.3,10.2,39.3,10.2"/>
</g>
<g>
	<path class="st0" d="M94.1,14.6v13.9h-1.8V14.6H94.1z"/>
	<path class="st0" d="M97.4,21.2c0-1,0-1.9-0.1-2.7h1.6l0.1,1.7l0,0c0.5-1,1.7-1.9,3.3-1.9c1.4,0,3.5,0.8,3.5,4.3v6H104v-5.8
		c0-1.6-0.6-3-2.3-3c-1.2,0-2.1,0.8-2.4,1.9c-0.1,0.2-0.1,0.5-0.1,0.8v6h-1.8C97.4,28.5,97.4,21.2,97.4,21.2z"/>
	<path class="st0" d="M108.6,26.7c0.5,0.4,1.5,0.7,2.4,0.7c1.3,0,1.9-0.7,1.9-1.5c0-0.9-0.5-1.3-1.9-1.8c-1.8-0.6-2.6-1.6-2.6-2.8
		c0-1.6,1.3-2.9,3.5-2.9c1,0,1.9,0.3,2.5,0.6l-0.5,1.2c-0.4-0.2-1.1-0.6-2-0.6c-1.1,0-1.7,0.6-1.7,1.4s0.6,1.2,1.9,1.7
		c1.7,0.7,2.6,1.5,2.6,3c0,1.8-1.4,3-3.7,3c-1.1,0-2.1-0.3-2.8-0.7L108.6,26.7z"/>
	<path class="st0" d="M119.3,15.6v2.9h2.6v1.4h-2.6v5.4c0,1.2,0.4,1.9,1.4,1.9c0.5,0,0.8-0.1,1.1-0.1l0.1,1.4
		c-0.4,0.1-0.9,0.2-1.6,0.2c-0.8,0-1.5-0.3-2-0.8s-0.7-1.4-0.7-2.6v-5.5h-1.7v-1.4h1.5V16L119.3,15.6z"/>
	<path class="st0" d="M123.9,21.6c0-1.2,0-2.2-0.1-3.1h1.6l0.1,2h0.1c0.5-1.3,1.5-2.2,2.8-2.2c0.2,0,0.4,0,0.5,0.1v1.7
		c-0.2,0-0.4-0.1-0.6-0.1c-1.3,0-2.2,1-2.4,2.3c0,0.2-0.1,0.5-0.1,0.8v5.3h-1.9V21.6z"/>
	<path class="st0" d="M139,25.8c0,1,0,1.9,0.1,2.7h-1.6l-0.1-1.6l0,0c-0.5,0.8-1.5,1.9-3.3,1.9c-1.6,0-3.5-0.9-3.5-4.4v-5.8h1.8v5.5
		c0,1.9,0.6,3.2,2.2,3.2c1.2,0,2.1-0.8,2.4-1.7c0.1-0.3,0.2-0.6,0.2-0.9v-6.1h1.8V25.8z"/>
	<path class="st0" d="M149.2,28.1c-0.5,0.2-1.5,0.6-2.9,0.6c-3,0-5-2-5-5.1s2.1-5.3,5.4-5.3c1.1,0,2,0.3,2.5,0.5l-0.4,1.4
		c-0.4-0.2-1.1-0.5-2.1-0.5c-2.3,0-3.5,1.7-3.5,3.8c0,2.3,1.5,3.7,3.5,3.7c1,0,1.7-0.3,2.2-0.5L149.2,28.1z"/>
	<path class="st0" d="M153.8,15.6v2.9h2.6v1.4h-2.6v5.4c0,1.2,0.4,1.9,1.4,1.9c0.5,0,0.8-0.1,1.1-0.1l0.1,1.4
		c-0.4,0.1-0.9,0.2-1.6,0.2c-0.8,0-1.5-0.3-2-0.8s-0.7-1.4-0.7-2.6v-5.5h-1.5v-1.4h1.5V16L153.8,15.6z"/>
	<path class="st0" d="M167.3,23.4c0,3.7-2.6,5.3-5,5.3c-2.7,0-4.8-2-4.8-5.1c0-3.3,2.2-5.3,5-5.3C165.4,18.3,167.3,20.4,167.3,23.4z
		 M159.4,23.5c0,2.2,1.3,3.8,3,3.8s3-1.6,3-3.9c0-1.7-0.8-3.8-3-3.8C160.3,19.7,159.4,21.6,159.4,23.5z"/>
	<path class="st0" d="M169.6,21.6c0-1.2,0-2.2-0.1-3.1h1.6l0.1,2h0.1c0.5-1.3,1.5-2.2,2.8-2.2c0.2,0,0.4,0,0.5,0.1v1.7
		c-0.2,0-0.4-0.1-0.6-0.1c-1.3,0-2.2,1-2.4,2.3c0,0.2-0.1,0.5-0.1,0.8v5.3h-1.8v-6.8H169.6z"/>
	<path class="st0" d="M180.8,14.8c0.9-0.1,2-0.3,3.5-0.3c1.8,0,3.1,0.4,3.9,1.2c0.8,0.7,1.2,1.7,1.2,2.9c0,1.3-0.4,2.3-1.1,3
		c-1,1-2.5,1.5-4.3,1.5c-0.5,0-1,0-1.4-0.1v5.6h-1.8L180.8,14.8L180.8,14.8z M182.6,21.5c0.4,0.1,0.9,0.1,1.5,0.1
		c2.2,0,3.5-1.1,3.5-3c0-1.8-1.3-2.7-3.3-2.7c-0.8,0-1.4,0.1-1.7,0.1V21.5z"/>
	<path class="st0" d="M200.3,23.4c0,3.7-2.6,5.3-5,5.3c-2.7,0-4.8-2-4.8-5.1c0-3.3,2.2-5.3,5-5.3C198.3,18.3,200.3,20.4,200.3,23.4z
		 M192.3,23.5c0,2.2,1.3,3.8,3,3.8s3-1.6,3-3.9c0-1.7-0.8-3.8-3-3.8C193.3,19.7,192.3,21.6,192.3,23.5z"/>
	<path class="st0" d="M202.6,21.6c0-1.2,0-2.2-0.1-3.1h1.6l0.1,2h0.1c0.5-1.3,1.5-2.2,2.8-2.2c0.2,0,0.4,0,0.5,0.1v1.7
		c-0.2,0-0.4-0.1-0.6-0.1c-1.3,0-2.2,1-2.4,2.3c0,0.2-0.1,0.5-0.1,0.8v5.3h-1.8v-6.8H202.6z"/>
	<path class="st0" d="M212,15.6v2.9h2.6v1.4H212v5.4c0,1.2,0.4,1.9,1.4,1.9c0.5,0,0.8-0.1,1.1-0.1l0.1,1.4c-0.4,0.1-0.9,0.2-1.6,0.2
		c-0.8,0-1.5-0.3-2-0.8s-0.7-1.4-0.7-2.6v-5.5h-1.5v-1.4h1.5V16L212,15.6z"/>
	<path class="st0" d="M222.2,28.5l-0.1-1.3H222c-0.6,0.8-1.6,1.5-3.1,1.5c-2,0-3.1-1.4-3.1-2.9c0-2.4,2.1-3.7,6-3.7v-0.2
		c0-0.8-0.2-2.3-2.3-2.3c-0.9,0-1.9,0.3-2.6,0.7l-0.4-1.2c0.8-0.5,2-0.9,3.3-0.9c3.1,0,3.8,2.1,3.8,4.1V26c0,0.9,0,1.7,0.2,2.4
		L222.2,28.5L222.2,28.5z M221.9,23.4c-2,0-4.2,0.3-4.2,2.3c0,1.2,0.8,1.7,1.7,1.7c1.3,0,2.1-0.8,2.4-1.7c0.1-0.2,0.1-0.4,0.1-0.6
		V23.4z"/>
	<path class="st0" d="M226.6,13.9h1.8v14.7h-1.8V13.9z"/>
</g>
<g>
	<g>
		<path class="st2" d="M140.8,9.7l-0.6-1.2l-0.1-0.2l-0.2,0.1c-0.5,0.5-1,0.9-1.7,1.1c-0.3,0.1-0.5,0.1-0.7,0.1
			c-0.3,0-0.6-0.1-0.8-0.3c-0.2-0.2-0.4-0.5-0.5-0.7c2-0.7,3.2-1.5,3.7-2.5c0.3-0.5,0.3-1.1,0.1-1.7c-0.3-0.9-1.1-1.5-2.1-1.5
			c-0.4,0-0.8,0.1-1.1,0.2c-1.2,0.4-2.1,1.4-2.5,2.6c-0.4,1.1-0.4,2.4,0,3.6c0.5,1.4,1.5,2.2,2.8,2.2c0.4,0,0.9-0.1,1.4-0.3
			c0.9-0.3,1.8-0.9,2.4-1.5l0.1-0.1L140.8,9.7z M138,5.7c-0.2,0.4-0.9,0.9-2.2,1.3c0-0.8,0.3-1.8,1.2-2.1c0.1-0.1,0.3-0.1,0.4-0.1
			c0.2,0,0.4,0.1,0.6,0.4C138.1,5.4,138.1,5.6,138,5.7"/>
		<path class="st2" d="M129.2,2.7h-2.5v-2l8.2,0.1v2h-2.5c-0.2,0-0.4,0.2-0.4,0.4l-0.1,8.1h-2.4l0.1-8.2
			C129.6,2.9,129.4,2.8,129.2,2.7"/>
		<path class="st2" d="M102.3,11.2h-2.2c-0.1,0-0.3-0.2-0.3-0.6V9.7l0,0V6.6l0.1-3.4c0-0.1,0-0.1,0-0.2h0.1h2.1
			c0.1,0,0.3,0.2,0.2,0.4l-0.1,6.8C102.2,10.2,102.2,10.8,102.3,11.2"/>
		<path class="st2" d="M116.2,11.3V6.5c0-1.1-0.2-2-0.7-2.6c-0.4-0.6-1.1-0.9-1.9-0.9c-0.5,0-1,0.1-1.4,0.3s-0.7,0.5-1.1,0.9
			c-0.1,0.1-0.2,0.2-0.3,0.1l0,0c-0.2,0-0.3-0.1-0.3-0.2c-0.3-0.7-1-1.2-2-1.2c-0.9,0-1.7,0.4-2.3,1.1l0,0l0,0
			c-0.1,0.1-0.2,0.2-0.4,0.2c-0.1,0-0.3-0.1-0.3-0.3s0-0.6,0-0.9V2.9h-2.1V11h2.4V6.4l0,0c0-0.2,0-0.5,0.1-0.7
			c0.2-0.6,0.7-0.9,1.3-0.9c0.4,0,0.8,0.2,1,0.6c0.2,0.3,0.3,0.8,0.3,1.3v4.4h2.4V6.5c0-0.3,0-0.6,0.1-0.7c0.2-0.6,0.7-1,1.3-1l0,0
			c0.5,0,0.8,0.2,1.1,0.6c0.4,0.5,0.5,1,0.5,1.6v4.3H116.2z"/>
		<path class="st2" d="M98.6,7c-0.2-0.4-0.4-0.7-0.7-1c-0.3-0.3-0.8-0.6-1.5-1c-1.5-0.7-1.8-1.3-1.8-1.6s0.1-0.5,0.3-0.7
			c0.2-0.2,0.5-0.3,0.8-0.3c0.6,0,1.3,0.2,1.8,0.6l0.3,0.2L97.9,3l0.6-1.5l0.1-0.1l-0.2-0.2c-0.6-0.5-1.5-0.7-2.7-0.7
			c-0.9,0-1.7,0.3-2.3,0.8s-0.9,1.2-0.9,2.1c0,0.4,0.1,0.8,0.2,1.2c0.2,0.4,0.4,0.7,0.7,1c0.3,0.3,0.8,0.6,1.6,1
			c0.7,0.4,1.2,0.7,1.4,1c0.2,0.3,0.3,0.6,0.3,0.8c0,0.4-0.1,0.9-1.4,0.9c-0.6,0-1.3-0.2-1.9-0.7l-0.2-0.2l-0.1,0.2l-0.7,1.6
			l-0.1,0.2l0.1,0.1c0.8,0.5,1.7,0.8,2.6,0.8c1.1,0,2-0.3,2.7-0.8c0.7-0.6,1-1.3,1.1-2.2C98.9,7.8,98.8,7.4,98.6,7"/>
		<path class="st2" d="M143.8,3.3c0.2,0,0.3,0.1,0.4,0.2l0.7,1.1c0.2,0.4,0.4,0.8,0.7,1.2l0,0c0.2-0.4,0.4-0.9,0.6-1.3l0.6-1.1
			c0.1-0.1,0.2-0.2,0.4-0.2h2.5l-2.7,4l2.7,4.3h-2.5c-0.2,0-0.5-0.1-0.6-0.4L146,10c-0.2-0.4-0.4-0.8-0.6-1.3h-0.1
			c-0.2,0.4-0.4,0.8-0.6,1.2l-0.6,1.2c-0.1,0.2-0.3,0.3-0.5,0.3h-2.5l2.8-4.2l-2.7-4.1L143.8,3.3z"/>
		<path class="st2" d="M154,1v2.1c0,0.1,0.1,0.3,0.3,0.3h1.6v1.9h-1.6c-0.1,0-0.3,0.1-0.3,0.2v2.7c0,1,0.2,1.4,1,1.5
			c0.3,0,0.6,0,0.8-0.1v1.9c-0.3,0.1-0.9,0.2-1.7,0.2c-0.8,0-1.5-0.3-1.9-0.7c-0.5-0.5-0.7-1.3-0.7-2.4V5.5c0-0.1-0.1-0.2-0.2-0.2
			h-0.9V3.4h0.8c0.2,0,0.3-0.1,0.3-0.3V1.6L154,1z"/>
	</g>
	<path class="st2" d="M123.6,2v5.1c0,1.8-0.7,2.7-1.9,2.7c-1.2,0-1.9-0.9-1.9-2.7V2h-2.4v4.9c0,3.3,1.5,4.8,4.2,4.8S126,10.2,126,7
		V2C126,2,123.6,2,123.6,2z"/>
</g>
<line class="st4" x1="82" y1="0.2" x2="82" y2="29"/>
</svg>
