<?xml version="1.0" encoding="utf-8"?>
<!-- Generator: Adobe Illustrator 23.0.3, SVG Export Plug-In . SVG Version: 6.00 Build 0)  -->
<svg version="1.1" id="Layer_1" xmlns="http://www.w3.org/2000/svg" xmlns:xlink="http://www.w3.org/1999/xlink" x="0px" y="0px"
	 viewBox="0 0 177.9 28.8" style="enable-background:new 0 0 177.9 28.8;" xml:space="preserve">
<style type="text/css">
	.st0{fill:#DE7926;}
	.st1{fill:#C1D82F;}
	.st2{fill:#FFFFFF;}
	.st3{opacity:0.35;fill:#FFFFFF;}
	.st4{fill:none;stroke:#FFFFFF;stroke-width:0.75;stroke-miterlimit:10;}
</style>
<g>
	<g>
		<path class="st0" d="M57.1,26.2c0.8,0.5,2,0.9,3.2,0.9c1.8,0,2.9-1,2.9-2.4c0-1.3-0.7-2-2.6-2.8c-2.3-0.8-3.7-2-3.7-3.9
			c0-2.2,1.8-3.8,4.5-3.8c1.4,0,2.5,0.3,3.1,0.7L64,16.4c-0.5-0.2-1.4-0.7-2.6-0.7c-1.9,0-2.6,1.1-2.6,2.1c0,1.3,0.8,1.9,2.8,2.7
			c2.4,0.9,3.6,2,3.6,4.1c0,2.1-1.6,4-4.9,4c-1.3,0-2.8-0.4-3.6-0.9L57.1,26.2z"/>
		<path class="st0" d="M69.6,15.5v2.9h2.6v1.4h-2.6v5.4c0,1.2,0.4,1.9,1.4,1.9c0.5,0,0.8-0.1,1.1-0.1l0.1,1.4
			c-0.4,0.1-0.9,0.2-1.6,0.2c-0.8,0-1.5-0.3-2-0.8c-0.5-0.5-0.7-1.4-0.7-2.6v-5.5h-1.5v-1.4h1.5V16L69.6,15.5z"/>
		<path class="st0" d="M82.6,25.7c0,1,0,1.9,0.1,2.7h-1.6L81,26.8h0c-0.5,0.8-1.5,1.9-3.3,1.9c-1.6,0-3.5-0.9-3.5-4.4v-5.8H76V24
			c0,1.9,0.6,3.2,2.2,3.2c1.2,0,2.1-0.8,2.4-1.7c0.1-0.3,0.2-0.6,0.2-0.9v-6.1h1.8V25.7z"/>
		<path class="st0" d="M94.3,13.8v12.1c0,0.9,0,1.9,0.1,2.6h-1.6l-0.1-1.7h0c-0.6,1.1-1.8,2-3.4,2c-2.4,0-4.3-2-4.3-5.1
			c0-3.3,2-5.4,4.5-5.4c1.5,0,2.6,0.7,3,1.5h0v-6H94.3z M92.4,22.5c0-0.2,0-0.5-0.1-0.8c-0.3-1.2-1.3-2.1-2.6-2.1
			c-1.9,0-3,1.7-3,3.9c0,2,1,3.7,3,3.7c1.2,0,2.3-0.8,2.7-2.2c0.1-0.2,0.1-0.5,0.1-0.8V22.5z"/>
		<path class="st0" d="M98.3,23.8c0,2.5,1.6,3.5,3.4,3.5c1.3,0,2.1-0.2,2.8-0.5l0.3,1.3c-0.6,0.3-1.7,0.6-3.3,0.6
			c-3.1,0-4.9-2-4.9-5c0-3,1.8-5.4,4.7-5.4c3.3,0,4.1,2.9,4.1,4.7c0,0.4,0,0.7-0.1,0.8H98.3z M103.6,22.4c0-1.2-0.5-3-2.5-3
			c-1.8,0-2.6,1.7-2.8,3H103.6z"/>
		<path class="st0" d="M107.6,21.1c0-1,0-1.9-0.1-2.7h1.6l0.1,1.7h0c0.5-1,1.7-1.9,3.3-1.9c1.4,0,3.5,0.8,3.5,4.3v6h-1.8v-5.8
			c0-1.6-0.6-3-2.3-3c-1.2,0-2.1,0.8-2.4,1.9c-0.1,0.2-0.1,0.5-0.1,0.8v6h-1.8V21.1z"/>
		<path class="st0" d="M121.2,15.5v2.9h2.6v1.4h-2.6v5.4c0,1.2,0.4,1.9,1.4,1.9c0.5,0,0.8-0.1,1.1-0.1l0.1,1.4
			c-0.4,0.1-0.9,0.2-1.6,0.2c-0.8,0-1.5-0.3-2-0.8c-0.5-0.5-0.7-1.4-0.7-2.6v-5.5h-1.5v-1.4h1.5V16L121.2,15.5z"/>
		<path class="st0" d="M130.3,14.7c0.9-0.1,2-0.3,3.5-0.3c1.8,0,3.1,0.4,3.9,1.2c0.8,0.7,1.2,1.7,1.2,2.9c0,1.3-0.4,2.3-1.1,3
			c-1,1-2.5,1.5-4.3,1.5c-0.5,0-1,0-1.4-0.1v5.6h-1.8V14.7z M132.1,21.4c0.4,0.1,0.9,0.1,1.5,0.1c2.2,0,3.5-1.1,3.5-3
			c0-1.8-1.3-2.7-3.3-2.7c-0.8,0-1.4,0.1-1.7,0.1V21.4z"/>
		<path class="st0" d="M149.7,23.3c0,3.7-2.6,5.3-5,5.3c-2.7,0-4.8-2-4.8-5.1c0-3.3,2.2-5.3,5-5.3C147.8,18.2,149.7,20.3,149.7,23.3
			z M141.8,23.4c0,2.2,1.3,3.8,3,3.8c1.7,0,3-1.6,3-3.9c0-1.7-0.8-3.8-3-3.8C142.7,19.6,141.8,21.5,141.8,23.4z"/>
		<path class="st0" d="M152,21.5c0-1.2,0-2.2-0.1-3.1h1.6l0.1,2h0.1c0.5-1.3,1.5-2.2,2.8-2.2c0.2,0,0.4,0,0.5,0.1V20
			c-0.2,0-0.4-0.1-0.6-0.1c-1.3,0-2.2,1-2.4,2.3c0,0.2-0.1,0.5-0.1,0.8v5.3H152V21.5z"/>
		<path class="st0" d="M161.5,15.5v2.9h2.6v1.4h-2.6v5.4c0,1.2,0.4,1.9,1.4,1.9c0.5,0,0.8-0.1,1.1-0.1l0.1,1.4
			c-0.4,0.1-0.9,0.2-1.6,0.2c-0.8,0-1.5-0.3-2-0.8c-0.5-0.5-0.7-1.4-0.7-2.6v-5.5h-1.5v-1.4h1.5V16L161.5,15.5z"/>
		<path class="st0" d="M171.7,28.4l-0.1-1.3h-0.1c-0.6,0.8-1.6,1.5-3.1,1.5c-2,0-3.1-1.4-3.1-2.9c0-2.4,2.1-3.7,6-3.7v-0.2
			c0-0.8-0.2-2.3-2.3-2.3c-0.9,0-1.9,0.3-2.6,0.7l-0.4-1.2c0.8-0.5,2-0.9,3.3-0.9c3.1,0,3.8,2.1,3.8,4.1V26c0,0.9,0,1.7,0.2,2.4
			H171.7z M171.4,23.3c-2,0-4.2,0.3-4.2,2.3c0,1.2,0.8,1.7,1.7,1.7c1.3,0,2.1-0.8,2.4-1.7c0.1-0.2,0.1-0.4,0.1-0.6V23.3z"/>
		<path class="st0" d="M176.1,13.8h1.8v14.7h-1.8V13.8z"/>
	</g>
	<g>
		<path class="st0" d="M24.7,8.3c-0.1,0.1-0.6,0.1-0.8,0.1c-0.2,0-0.9,0-1.2,0c-0.3,0-0.3,0-0.3,0.2l0,0c0,0.2,0,0.4,0.1,0.5
			c-0.1,0-0.2-0.1-0.2-0.1c-0.2-0.1-0.4-0.2-0.7-0.3c-0.1-0.2-0.1-0.3-0.2-0.4c0.2,0,0.7-0.1,1.5-0.2c0.1,0,0.4,0,0.7-0.2
			c0.3-0.2,0-0.4-0.1-0.1c-0.1,0.2-0.5,0.2-0.7,0.2c-0.2,0-1,0.1-1.3,0.2c-0.2,0-0.3,0-0.3,0.1l0,0c0,0,0,0,0,0c0,0,0,0.1,0,0.1
			c0.1,0.1,0.1,0.2,0.2,0.3c-0.4-0.1-0.8-0.1-1,0.1c0,0,0,0-0.1,0.1c0,0,0,0,0,0c0,0,0,0.1,0,0.1c0,0.1-0.1,0.3-0.2,0.3
			c-0.8-2.1-1-2.5-1.1-2.6c0,0,0,0,0,0c0,0,0,0,0,0c0,0,0,0,0,0c-0.1,0.1-0.3,0.5-0.6,1.4c-0.2,0-0.4,0-0.5,0
			c-0.4-1.3-0.5-1.8-0.6-1.9c0,0,0,0,0,0c0,0,0,0,0,0c-0.1,0-0.4,0.3-0.8,1.4c-1.1-1.2-2.6-0.9-3.2-0.7c-0.7,0.3-1,0.5-0.9,0.8
			c0.2,0.4,0.3,0.7,0.5,0.9c-0.5,0.7-1.3,1.7-1.5,1.9c-0.2,0.2-0.3,0.4-0.3,0.6c-0.3,0.3-0.7,0.8-0.8,0.9c-0.4,0.3-0.9,0.2-0.8,0.4
			c0.1,0.3,0.7,0.1,1.8-1.1c0.2-0.1,0.6-0.3,0.7-0.6c0.1-0.2,0.8-1.1,1.3-1.7c0.5,0.3,1.2,0.5,2.5,0.4c0.4,0.4,0.6,0.5,0.8,0.6
			c0,0,0.1,0,0.1,0c0.1,0,0.2,0,0.3,0c0,0,0.1,0.1,0.1,0.1c-0.2,0.1-0.3,0.2-0.3,0.3c-1.3-0.8-1.5-0.8-1.6-0.7c0,0-0.7,2-0.5,2.6
			c0,0,0,0.1,0,0.1c-0.1,0.9-0.1,1-0.4,1.3c-0.3,0.3-0.7,1-0.3,0.9c0.4-0.1,0.6-0.7,0.7-1.2c0-0.2,0.1-0.5,0.2-0.8
			c0.2,0,0.4-0.6,0.6-2.4c0.4,0.3,0.9,0.7,1.4,0.6c0,0,0,0,0,0c0.2,0.1,0.4,0,0.5-0.2c0-0.1,0.2,0,0.4,0c-0.2,0.1-0.4,0.3-0.4,0.4
			l0,0c0.3,0.9,0.7,1.3,1,1.5c-0.5,0.5-0.8,0.9-0.7,1.1c0.3,1.3,0.7,1.7,1,1.7c0.3,0,0.2-0.2-0.1-0.4c-0.2-0.2-0.6-1.1-0.7-1.4
			c0.3-0.2,0.7-0.7,0.9-0.9c0.1,0,0.2-0.1,0.1-0.2c0-0.2-0.9-1-1.3-1.3c0.1,0,0.3,0,0.4-0.1c0.2,0.1,0.4,0,0.6,0
			c0.4,0.1,0.7,0,0.9-0.1c0.3,0.7,0.8,1.3,1.8,1.5c0.6,0.1,1.2,0,1.8-0.1c0.1,0,0.1,0,0.2,0c1-0.2,0.9-0.6,0.5-1.2
			c0-0.5-0.1-1-0.5-1.4c-0.1-0.1-0.3-0.2-0.4-0.3c0,0,0-0.1,0-0.1c-0.1-0.2-0.1-0.4-0.1-0.6c0.1,0,0.6,0,1.6,0c0.1,0,0.4,0,0.7-0.1
			C25.1,8.3,24.9,8.1,24.7,8.3z M16.9,8.4C16.9,8.4,16.9,8.4,16.9,8.4C16.9,8.4,16.9,8.4,16.9,8.4C16.9,8.4,16.9,8.4,16.9,8.4
			C16.9,8.4,16.9,8.4,16.9,8.4C16.9,8.4,16.9,8.4,16.9,8.4c-0.1-0.2-0.2-0.3-0.3-0.5c0.1-0.3,0.3-0.8,0.4-1.1
			c0.2,0.7,0.3,1.1,0.4,1.3C17.3,8.2,17.1,8.3,16.9,8.4z M18.7,8.1c0.1-0.3,0.2-0.6,0.3-0.9c0.5,1.1,0.7,1.6,0.8,1.9
			C19.5,8.6,19.2,8.3,18.7,8.1z M23.7,11.3C23.7,11.3,23.7,11.3,23.7,11.3C23.7,11.3,23.7,11.3,23.7,11.3L23.7,11.3z"/>
		<g>
			<path class="st1" d="M27.3,10.2c0,0-1.9-0.4-2.8,0.2c-0.3,0.2-0.6,0.5-0.8,0.7c0.3,0.4,0.2,0.7-0.5,0.9c-0.2,0.4-0.3,0.7-0.4,0.9
				c0,0,0,0.1,0,0.1c0,0,0,0,0,0c0,0,0,0,0,0c0,0.2-0.1,0.4,0,0.5c0.1,0.3,0.3,0.5,0.6,0.6l0.2-0.4c-0.5-0.2-0.7-0.4-0.5-0.9
				c0.7-0.4,2.3,0,3-0.2C27.4,12.1,27.3,10.2,27.3,10.2z"/>
			<path class="st1" d="M23.7,11.3L23.7,11.3C23.7,11.3,23.7,11.3,23.7,11.3C23.7,11.3,23.7,11.3,23.7,11.3
				C23.7,11.3,23.7,11.3,23.7,11.3z"/>
		</g>
		<path class="st2" d="M9.8,22.9l-2.2,0c-0.1,0-0.3-0.2-0.3-0.5v-0.9v0v-3.1v-3.3c0-0.1,0-0.1,0-0.2h0.1h2c0.1,0,0.3,0.2,0.3,0.4
			v6.6C9.7,22,9.7,22.5,9.8,22.9"/>
		<path class="st2" d="M23.6,22.9v-4.7c0-1.1-0.2-2-0.7-2.5c-0.4-0.6-1.1-0.8-1.9-0.8c-0.5,0-1,0.1-1.4,0.3
			c-0.4,0.2-0.7,0.5-1.1,0.9c-0.1,0.1-0.2,0.1-0.3,0.1h0c-0.2,0-0.3-0.1-0.3-0.2c-0.3-0.7-1-1.1-2-1.1c-0.9,0-1.7,0.4-2.3,1.1l0,0
			l0,0c-0.1,0.1-0.2,0.2-0.4,0.2c-0.1,0-0.3-0.1-0.3-0.3c0-0.2,0-0.6,0-0.9c0,0,0-0.1,0-0.1h-2l0,8l2.4,0v-4.6v0
			c0-0.2,0-0.5,0.1-0.7c0.2-0.6,0.7-0.9,1.3-0.9c0.4,0,0.8,0.2,1,0.6c0.2,0.3,0.3,0.8,0.3,1.3v4.3h2.4v-4.6c0-0.3,0-0.6,0.1-0.7
			c0.2-0.6,0.7-1,1.3-1h0c0.4,0,0.8,0.2,1.1,0.6c0.2,0.3,0.3,0.8,0.3,1.4v4.3L23.6,22.9z"/>
		<path class="st2" d="M3.3,12.2c-0.9,0-1.7,0.3-2.3,0.8c-0.6,0.5-0.9,1.2-0.9,2.1c0,0.4,0.1,0.8,0.2,1.2C0.5,16.7,0.7,17,1,17.3
			c0.3,0.3,0.8,0.6,1.6,1c0.7,0.4,1.2,0.7,1.4,1c0.2,0.3,0.3,0.5,0.3,0.8c0,0.4-0.1,0.9-1.3,0.9c-0.6,0-1.3-0.2-1.9-0.7l-0.2-0.2
			l-0.1,0.2l-0.6,1.6L0,22.1l0.1,0.1c0.8,0.5,1.7,0.8,2.6,0.8c1.1,0,2-0.3,2.7-0.8c0.7-0.6,1-1.3,1-2.1c0-0.5-0.1-0.9-0.2-1.3
			c-0.2-0.4-0.4-0.7-0.7-1C5.2,17.3,4.7,17,4,16.7c-1.5-0.7-1.8-1.3-1.8-1.6c0-0.3,0.1-0.5,0.3-0.7c0.2-0.2,0.4-0.3,0.8-0.3
			c0.6,0,1.3,0.2,1.8,0.6l0.2,0.2l0.1-0.3L6,13.2l0-0.1l-0.1-0.1C5.4,12.5,4.5,12.2,3.3,12.2"/>
		<path class="st1" d="M35.5,21.9v-6.6c0-0.3-0.2-0.4-0.3-0.4h-2h-0.1c0,0.1,0,0.1,0,0.2v3.3v3.1v0v0.9c0,0.4,0.1,0.5,0.3,0.5l2.2,0
			C35.5,22.5,35.5,22,35.5,21.9z"/>
		<path class="st1" d="M40.6,14.8c-2.6,0-4.3,1.6-4.3,4.1c0,2.4,1.6,4,4.1,4c1.9,0,4.2-1.1,4.2-4.1C44.6,16.4,43,14.8,40.6,14.8z
			 M40.5,21.2c-1,0-1.5-0.9-1.5-2.4c0-1.5,0.6-2.4,1.5-2.4c0.9,0,1.5,0.9,1.5,2.4C42,20.4,41.4,21.2,40.5,21.2z"/>
		<path class="st1" d="M30.3,17.3L30.3,17.3c1.1-0.5,1.7-1.3,1.7-2.2c0-0.9-0.5-1.6-1.2-2c-0.7-0.4-1.6-0.6-3-0.6
			c-0.2,0-0.4,0-0.5,0c-0.2,0.2-0.4,0.4-0.7,0.5c-0.4,0.1-1,0.1-1.6,0.1v9.6c0,0,0,0,0,0c0.5,0.1,1.2,0.1,2.3,0.1c2,0,3.3-0.3,4-0.9
			c0.6-0.5,1.1-1.2,1.1-2.2C32.3,18.5,31.5,17.6,30.3,17.3z M27.1,14.8c0-0.3,0.2-0.6,0.6-0.6c0.1,0,0.3,0,0.4,0
			c1,0,1.6,0.4,1.6,1.2c0,0.8-0.7,1.3-1.9,1.3h-0.2c-0.3,0-0.6-0.3-0.6-0.6V14.8z M27.9,21.2c-0.1,0-0.2,0-0.3,0
			c-0.3,0-0.6-0.3-0.6-0.6v-1.7c0-0.3,0.3-0.6,0.6-0.6h0.2c1.1,0,2.1,0.4,2.1,1.4C29.9,20.8,29,21.2,27.9,21.2z"/>
		<path class="st3" d="M25.5,12.3c-1,0-1.9,0-1.9,0s1.3-1.8,3.2-1.7C26.8,11.4,26.5,12.3,25.5,12.3z"/>
		<path class="st3" d="M21.1,10.6c-0.3-0.1-0.6,0-0.7,0.2c0,0,0,0,0,0c0.3,0.2,0.6,0.4,0.8,0.5c0.2,0,0.3-0.1,0.3-0.2
			C21.7,10.9,21.4,10.7,21.1,10.6z"/>
		<path class="st3" d="M15,7c-0.9-0.3-2.2,0.1-2.6,0.5c0,0-0.1,0,0.5,0.5C12.9,8,13,8,13.1,8.1c0-0.1,0.1-0.1,0.1-0.1
			c0.2-0.4,0.4-0.6,0.5-0.7c0,0,0,0,0,0c0,0,0,0,0,0c0,0,0,0,0,0c0,0,0,0,0,0c0,0,0,0,0.1,0c0.2,0.1,0.9,0.6,1.8,1.5
			c0.7,0,1.1-0.2,1-0.4C16.5,8,15.9,7.2,15,7z"/>
		<path class="st3" d="M13.5,8.3c0.3,0.1,0.7,0.2,1.2,0.3c-0.3-0.2-0.6-0.5-1-0.9C13.7,7.9,13.6,8.2,13.5,8.3z"/>
		<path class="st3" d="M18.1,8.2c-0.7,0-1.2,0.2-1.1,0.4c0.1,0.2,1.9,1,2.5,1h0c0.1-0.1,0.2-0.2,0.2-0.4C19.2,8.3,18.3,8.3,18.1,8.2
			z"/>
		<path class="st3" d="M23.6,11.4c-0.2-0.3-0.5-0.4-0.4-0.7c0-0.3,0-0.5,0-0.5c0-0.2-0.2-0.4-0.4-0.6c0.1,0.2,0.1,0.5,0.1,0.7
			c0,0.2-0.2,0-0.4-0.9c-0.3-0.2-0.6-0.3-0.9-0.4c0,0,0,0.1,0.1,0.1c0,0.1,0.9,1.1,0.9,1.4c0,0.3-0.4-0.2-1.1-1.6
			c-0.2-0.1-0.3-0.1-0.4-0.1c-0.3,0-0.7,0.1-0.6,0.3c0,0.2-0.1,0.2-0.3,0.3c-0.2,0.1-0.3,0.3,0.4,0.4c0.7,0.1,1.7,0.4,1.7,0.9
			c0,0.6-0.5,0.8-0.5,0.8C23,11.9,23.9,11.7,23.6,11.4z"/>
		<path class="st3" d="M23.6,12.3c0,0,1.3-1.8,3.2-1.7c0,0.8-0.4,1.7-1.4,1.7C24.5,12.3,23.6,12.3,23.6,12.3"/>
	</g>
	<g>
		<g>
			<path class="st2" d="M104.9,9.5l-0.6-1.2l-0.1-0.2L104,8.2c-0.5,0.5-1,0.9-1.7,1.1c-0.3,0.1-0.5,0.1-0.7,0.1
				c-0.3,0-0.6-0.1-0.8-0.3c-0.2-0.2-0.4-0.5-0.5-0.7c2-0.7,3.2-1.5,3.7-2.5c0.3-0.5,0.3-1.1,0.1-1.7c-0.3-0.9-1.1-1.5-2.1-1.5
				c-0.4,0-0.8,0.1-1.1,0.2c-1.2,0.4-2.1,1.4-2.5,2.6c-0.4,1.1-0.4,2.4,0,3.6c0.5,1.4,1.5,2.2,2.8,2.2c0.4,0,0.9-0.1,1.4-0.3
				c0.9-0.3,1.8-0.9,2.4-1.5l0.1-0.1L104.9,9.5z M102.1,5.5c-0.2,0.4-0.9,0.9-2.2,1.3c0-0.8,0.3-1.8,1.2-2.1
				c0.1-0.1,0.3-0.1,0.4-0.1c0.2,0,0.4,0.1,0.6,0.4C102.2,5.2,102.2,5.4,102.1,5.5"/>
			<path class="st2" d="M93.3,2.5l-2.5,0l0-2L99,0.6l0,2l-2.5,0c-0.2,0-0.4,0.2-0.4,0.4L96,11.1l-2.4,0l0.1-8.2
				C93.7,2.7,93.5,2.6,93.3,2.5"/>
			<path class="st2" d="M66.4,11l-2.2,0c-0.1,0-0.3-0.2-0.3-0.6l0-0.9l0,0l0-3.1L64,3c0-0.1,0-0.1,0-0.2l0.1,0l2.1,0
				c0.1,0,0.3,0.2,0.2,0.4L66.3,10C66.3,10,66.3,10.6,66.4,11"/>
			<path class="st2" d="M80.3,11.1l0-4.8c0-1.1-0.2-2-0.7-2.6c-0.4-0.6-1.1-0.9-1.9-0.9c-0.5,0-1,0.1-1.4,0.3
				c-0.4,0.2-0.7,0.5-1.1,0.9c-0.1,0.1-0.2,0.2-0.3,0.1l0,0c-0.2,0-0.3-0.1-0.3-0.2c-0.3-0.7-1-1.2-2-1.2c-0.9,0-1.7,0.4-2.3,1.1
				l0,0l0,0c-0.1,0.1-0.2,0.2-0.4,0.2c-0.1,0-0.3-0.1-0.3-0.3c0-0.2,0-0.6,0-0.9c0,0,0-0.1,0-0.1l-2.1,0l0,8.1l2.4,0l0-4.6l0,0
				c0-0.2,0-0.5,0.1-0.7c0.2-0.6,0.7-0.9,1.3-0.9c0.4,0,0.8,0.2,1,0.6c0.2,0.3,0.3,0.8,0.3,1.3l0,4.4l2.4,0l0-4.6
				c0-0.3,0-0.6,0.1-0.7c0.2-0.6,0.7-1,1.3-1l0,0c0.5,0,0.8,0.2,1.1,0.6C77.9,5.7,78,6.2,78,6.8l0,4.3L80.3,11.1z"/>
			<path class="st2" d="M62.7,6.8c-0.2-0.4-0.4-0.7-0.7-1c-0.3-0.3-0.8-0.6-1.5-1c-1.5-0.7-1.8-1.3-1.8-1.6c0-0.3,0.1-0.5,0.3-0.7
				c0.2-0.2,0.5-0.3,0.8-0.3c0.6,0,1.3,0.2,1.8,0.6L61.9,3L62,2.8l0.6-1.5l0.1-0.1L62.5,1c-0.6-0.5-1.5-0.7-2.7-0.7
				c-0.9,0-1.7,0.3-2.3,0.8c-0.6,0.5-0.9,1.2-0.9,2.1c0,0.4,0.1,0.8,0.2,1.2c0.2,0.4,0.4,0.7,0.7,1c0.3,0.3,0.8,0.6,1.6,1
				c0.7,0.4,1.2,0.7,1.4,1c0.2,0.3,0.3,0.6,0.3,0.8c0,0.4-0.1,0.9-1.4,0.9c-0.6,0-1.3-0.2-1.9-0.7l-0.2-0.2l-0.1,0.2L56.5,10
				l-0.1,0.2l0.1,0.1c0.8,0.5,1.7,0.8,2.6,0.8c1.1,0,2-0.3,2.7-0.8c0.7-0.6,1-1.3,1.1-2.2C63,7.6,62.9,7.2,62.7,6.8"/>
			<path class="st2" d="M107.9,3.1c0.2,0,0.3,0.1,0.4,0.2l0.7,1.1c0.2,0.4,0.4,0.8,0.7,1.2l0,0c0.2-0.4,0.4-0.9,0.6-1.3l0.6-1.1
				c0.1-0.1,0.2-0.2,0.4-0.2l2.5,0L111.1,7l2.7,4.3l-2.5,0c-0.2,0-0.5-0.1-0.6-0.4l-0.6-1.1c-0.2-0.4-0.4-0.8-0.6-1.3l-0.1,0
				c-0.2,0.4-0.4,0.8-0.6,1.2l-0.6,1.2c-0.1,0.2-0.3,0.3-0.5,0.3l-2.5,0l2.8-4.2l-2.7-4.1L107.9,3.1z"/>
			<path class="st2" d="M118.1,0.8l0,2.1c0,0.1,0.1,0.3,0.3,0.3l1.6,0l0,1.9l-1.6,0c-0.1,0-0.3,0.1-0.3,0.2l0,2.7c0,1,0.2,1.4,1,1.5
				c0.3,0,0.6,0,0.8-0.1l0,1.9c-0.3,0.1-0.9,0.2-1.7,0.2c-0.8,0-1.5-0.3-1.9-0.7c-0.5-0.5-0.7-1.3-0.7-2.4l0-3.1
				c0-0.1-0.1-0.2-0.2-0.2l-0.9,0l0-1.9l0.8,0c0.2,0,0.3-0.1,0.3-0.3l0-1.5L118.1,0.8z"/>
		</g>
		<path class="st2" d="M87.7,1.8l0,5.1c0,1.8-0.7,2.7-1.9,2.7c-1.2,0-1.9-0.9-1.9-2.7l0-5.1h-2.4l0,4.9c0,3.3,1.5,4.8,4.2,4.8
			c2.7,0,4.4-1.5,4.4-4.7l0-5H87.7z"/>
	</g>
	<line class="st4" x1="50.1" y1="0" x2="50.1" y2="28.8"/>
</g>
</svg>
